<svg width="300" height="84" viewBox="0 0 300 84" fill="none" xmlns="http://www.w3.org/2000/svg">
<rect x="0.5" y="0.5" width="299" height="82.0769" fill="#050505" stroke="white"/>
<path d="M152.326 18.8162C151.609 19.0086 150.101 19.6096 149.001 20.1385C142.66 23.1677 137.898 29.178 135.099 37.6164C133.974 41.0783 133.424 44.2037 133.233 48.5791L133.065 51.9449L132.036 52.1613C131.462 52.2815 130.936 52.3055 130.888 52.2574C130.816 52.1853 131.007 51.3919 131.318 50.5024C131.749 49.1802 131.869 48.3147 131.869 46.2952C131.869 43.9632 131.821 43.6507 131.151 42.3525C130.553 41.1504 130.218 40.8379 129.141 40.2609C128.04 39.6839 127.586 39.5878 125.887 39.5878C124.188 39.5878 123.734 39.6839 122.465 40.333C120.958 41.0783 119.762 42.2804 118.924 43.9152C118.302 45.1653 118.159 48.7474 118.709 50.4303C119.259 52.1613 120.336 53.8441 121.508 54.8058L122.465 55.6232L121.437 56.0559C119.905 56.681 116.699 56.8252 115.383 56.3204C114.115 55.8396 112.56 54.2048 112.105 52.9065C111.602 51.4881 111.722 47.9541 112.344 46.2231C114.139 41.1504 118.302 38.4338 124.332 38.3857C129.045 38.3376 129.428 36.7749 125.241 34.9238C122.154 33.5534 117.393 33.4573 113.78 34.7074C111.268 35.5729 109.473 36.7509 107.631 38.7223C105.764 40.7417 104.664 42.6169 103.73 45.3817C103.037 47.4011 102.965 47.9541 102.941 50.5265C102.917 52.1132 102.965 53.7239 103.037 54.1326C103.132 54.7337 103.037 54.926 102.343 55.3828C101.888 55.6953 101.338 55.9357 101.098 55.9357C100.452 55.9357 100.5 54.6375 101.242 51.9449C102.917 45.8384 103.3 41.2466 102.319 39.2271C100.524 35.5008 94.7099 34.8757 90.1399 37.9289C89.3503 38.4578 88.441 39.2031 88.13 39.5637L87.5557 40.2369L87.2686 38.8184C87.0293 37.6404 86.7661 37.1596 85.9048 36.222C83.0574 33.1688 78.5352 33.0967 75.3768 36.0537L74.013 37.3279L73.2713 35.9335C72.4817 34.3708 71.0939 32.9524 70.1129 32.712C69.0122 32.4235 68.0312 33.1447 66.8109 35.0921C64.1072 39.4435 62.5998 45.3576 62.5998 51.5602C62.5998 53.6518 62.4562 53.8922 60.3267 55.3106C58.1254 56.7772 57.934 56.2723 57.934 49.3244L57.9579 43.795L59.3457 41.1985C60.9249 38.2415 60.9488 37.8568 59.7046 36.1018C58.2211 34.0343 55.6609 32.736 54.2492 33.3371C53.8424 33.5054 53.5075 33.6977 53.5075 33.7938C53.5075 33.866 53.34 34.1304 53.1725 34.3708C52.8375 34.8036 52.7896 34.8036 51.6651 34.3949C49.2245 33.5294 44.1998 34.0343 41.496 35.4046C38.1941 37.0875 34.9161 40.4292 33.289 43.7709C31.6381 47.1367 31.1835 49.1321 31.1595 53.2912C31.1356 56.6329 31.1595 56.8252 31.8056 58.1475C32.7866 60.167 34.9161 62.0422 36.902 62.6672C39.7254 63.5327 43.6973 63.2683 46.2575 61.9941C47.5496 61.369 49.6791 59.4938 50.5644 58.2196L51.0669 57.5224L51.354 58.5802C51.7608 60.0708 52.3829 61.2248 53.2443 62.0422C53.8185 62.5951 54.2492 62.7634 55.2781 62.8596C56.8333 62.9798 59.4414 62.2585 61.3556 61.1767C62.2648 60.6478 62.6237 60.5516 62.6955 60.792C62.7673 60.9603 62.9347 61.5133 63.0783 61.9941C63.6286 63.8212 64.9685 64.0616 67.7919 62.8596C70.0172 61.946 71.6921 60.4554 71.6921 59.3976C71.6921 59.013 71.4767 57.9311 71.2135 57.0176C70.4957 54.5173 70.3282 50.839 70.8546 49.1802C72.1228 45.2855 75.0179 40.9581 76.7407 40.4292C77.4824 40.1888 78.607 40.7658 78.7984 41.463C78.942 42.064 78.8223 44.3719 78.3917 49.8052C78.272 51.3919 78.1524 54.4211 78.1524 56.5608C78.1524 63.5567 79.0616 64.6626 83.3446 62.8596C85.5219 61.97 87.2447 60.4554 87.2447 59.4457C87.2447 59.0851 86.9576 57.6907 86.6226 56.3444C85.8091 53.2191 85.9048 51.5362 87.0054 48.8676C88.0343 46.4154 89.9006 43.6026 90.9773 42.9295C92.0062 42.3044 93.37 42.4246 94.04 43.242C94.5425 43.8671 94.4707 45.3817 93.705 49.5648C92.7479 54.8779 92.8676 58.2437 94.1357 60.7199C95.0449 62.547 95.9063 62.9798 98.2512 62.8355C100.429 62.6913 102.343 61.9941 104.353 60.6237L105.86 59.59L106.339 60.0948C107.272 61.1046 109.401 62.1864 111.411 62.6913C114.067 63.3644 118.398 63.2442 120.671 62.4268C122.561 61.7537 124.619 60.4314 126.15 58.8928L127.37 57.6667L129.548 57.9071C131.582 58.1235 133.113 58.0033 134.381 57.4984C134.62 57.4263 134.908 57.6426 135.219 58.2437C135.458 58.7245 136.439 59.8304 137.396 60.7199C140.243 63.3885 143.33 64.5905 147.421 64.5905C152.661 64.5905 157.471 62.8355 161.156 59.614C161.802 59.0611 162.4 58.5802 162.472 58.5802C162.543 58.5802 162.615 59.2053 162.615 59.9746C162.615 61.5854 163.118 63.4606 163.716 64.1337C164.362 64.855 166.348 64.7588 168.238 63.8933C171.995 62.1624 172.018 62.1143 172.21 54.1326L172.353 47.8819L173.813 42.1121C175.584 35.1161 175.799 33.89 175.847 30.8849C175.895 27.9759 175.679 27.5912 174.124 28.0721C171.731 28.7933 169.267 32.688 166.707 39.8282C165.558 42.9776 165.486 43.1218 163.094 45.9827C159.72 50.0937 156.514 53.4354 155.269 54.1807C153.882 54.9741 151.585 55.6953 150.317 55.6953C147.732 55.6953 145.005 53.6999 143.593 50.7669C142.995 49.5167 142.875 48.9878 142.803 46.8963C142.612 41.2466 144.861 34.1785 147.876 30.981C149.216 29.5386 150.388 28.9856 152.063 28.9616C153.571 28.9375 154.193 29.178 155.485 30.356C156.657 31.4138 158.045 31.8225 159.026 31.4138C160.557 30.7647 161.802 28.2884 162.041 25.3073C162.328 21.8935 161.084 19.5615 158.5 18.7922C156.968 18.3354 154.073 18.3595 152.326 18.8162ZM51.7369 38.3617C51.4258 38.8425 50.8276 43.5545 50.6601 46.776C50.5166 49.9014 50.4209 50.4303 49.8227 51.6564C48.411 54.6135 45.8029 56.6569 43.4102 56.6569C41.1371 56.6569 40.1083 55.5511 39.9169 52.8344C39.534 47.4252 42.4531 42.4006 47.5257 39.732C49.8227 38.5059 52.0958 37.7847 51.7369 38.3617ZM127.251 44.8047C127.562 45.0932 127.682 45.55 127.682 46.5597C127.682 48.0502 127.083 50.4063 126.7 50.4063C126.318 50.4063 125.289 47.9541 125.289 46.9924C125.289 45.574 125.863 44.42 126.581 44.396C126.7 44.396 127.012 44.5643 127.251 44.8047Z" fill="white"/>
<path d="M175.799 18.6961C171.014 19.3211 165.534 22.2541 163.189 25.4516C161.993 27.1105 161.754 27.7115 162.137 28.1683C162.687 28.8174 163.931 28.5529 166.707 27.1826C171.636 24.7544 172.353 24.5861 177.33 24.5621C181.565 24.5621 181.661 24.5621 183.001 25.2352C186.183 26.7979 187.451 30.1156 186.446 34.3228C185.896 36.6788 183.623 39.8282 182.738 39.4436C181.565 38.9387 180.082 38.7944 178.79 39.0829C176.947 39.4916 176.182 40.1888 176.182 41.4149C176.182 41.9438 176.325 42.617 176.469 42.9295C176.828 43.5546 178.79 44.8768 179.412 44.8768C180.034 44.8768 180.273 45.6942 180.824 49.4447C181.063 51.2237 181.446 53.8682 181.661 55.3107C182.499 61.1527 183.886 63.3404 187.093 63.8693C189.653 64.278 193.026 63.2924 195.993 61.2248C196.927 60.5997 197.07 60.5517 197.07 60.9123C197.07 61.8018 197.597 63.1481 198.171 63.8693C198.721 64.5185 198.936 64.5906 200.157 64.5906C201.257 64.5906 201.903 64.3982 203.459 63.653C206.952 61.9461 207.454 60.2151 206.306 53.9884C205.66 50.5265 205.684 50.214 206.976 45.3096C210.063 33.5294 214.346 26.846 218.844 26.846C220.638 26.846 221.332 27.6634 221.739 30.2839C222.241 33.3852 221.356 38.4098 218.365 49.3966C216.26 57.234 215.853 59.4939 216.212 61.4171C216.666 63.9174 217.289 64.5906 219.059 64.5906C220.782 64.5906 222.481 63.7972 223.677 62.475C224.897 61.1287 225.137 60.0228 224.826 57.5465C224.275 53.4115 225.567 47.9301 228.439 42.1602C230.592 37.8809 232.985 34.8277 234.995 33.9141C236.502 33.1929 236.909 33.1929 237.627 33.9381C238.799 35.1161 238.344 38.6502 235.736 48.2907C233.463 56.7051 233.224 58.412 234.181 60.5036C235.401 63.2202 237.698 64.3502 241.096 63.8693C244.35 63.4126 247.221 61.8258 250.093 58.9409C252.39 56.6089 253.658 54.1086 253.634 51.9209C253.634 50.839 253.514 50.2861 253.203 49.9495C252.605 49.3004 252.39 49.4447 249.471 52.3536C245.331 56.4647 243.441 57.5706 242.46 56.4647C241.742 55.6713 241.957 53.6038 243.369 47.6175C245.092 40.285 245.451 37.9049 245.475 34.419C245.475 32.135 245.355 31.1974 244.948 29.9473C244.278 27.8317 242.962 26.3171 241.192 25.668C238.655 24.7063 234.827 25.1391 232.65 26.6296C232.219 26.9181 231.214 27.8076 230.425 28.577L228.965 30.0194L228.797 28.1202C228.319 22.783 226.979 20.403 223.701 19.1528C221.859 18.4316 218.796 18.3835 216.93 19.0086C214.274 19.9222 211.905 21.9416 209.919 24.9948L208.866 26.6056L208.699 25.115C208.22 20.5953 206.162 18.672 201.856 18.672C198.889 18.672 195.993 19.7779 193.936 21.7252L192.787 22.8071L191.878 22.0618C188.456 19.3452 181.733 17.9267 175.799 18.6961ZM200.013 25.4035C201.521 26.6056 201.473 28.9376 199.822 38.0251C199.104 41.9919 198.243 46.9684 197.932 49.084L197.357 52.9066L195.754 54.4452C193.816 56.2964 192.883 56.8974 191.902 56.8974C190.538 56.8974 189.796 55.479 188.337 50.0217C187.739 47.8339 187.093 45.6702 186.901 45.1894C186.71 44.7326 186.542 44.2999 186.542 44.2518C186.542 44.2037 187.26 43.795 188.169 43.3382C191.902 41.4149 194.558 38.2655 195.491 34.6113C195.922 32.9765 195.993 29.0818 195.635 27.8317C195.371 26.846 195.467 26.6777 197.022 25.6439C198.29 24.8025 199.152 24.7304 200.013 25.4035Z" fill="white"/>
<path d="M260.357 51.7045C259.041 52.3055 257.725 53.6518 257.223 54.8779C256.744 56.0319 256.816 58.5081 257.343 59.6621C257.893 60.8641 259.352 62.2826 260.525 62.7874C263.253 63.9174 266.818 62.5951 268.182 59.9265C270.742 54.926 265.43 49.3244 260.357 51.7045Z" fill="white"/>
</svg>
