<svg width="300" height="84" viewBox="0 0 300 84" fill="none" xmlns="http://www.w3.org/2000/svg">
<rect x="0.5" y="0.5" width="299" height="82.0769" fill="#050505" stroke="white"/>
<path fill-rule="evenodd" clip-rule="evenodd" d="M35.6843 49.0706H41.6679C45.5497 49.0706 48.8907 51.0427 48.8907 54.8902C48.8907 62.3855 41.655 61.3946 35.6827 61.3946L35.6843 49.0706ZM35.7262 30.7998C39.5339 30.7998 46.129 30.1827 46.1805 36.5759C46.2015 39.1199 44.8399 40.9551 43.0825 41.7526C40.9694 42.7113 38.1659 42.4825 35.6811 42.4825L35.7262 30.7998ZM27.6923 67.9924C30.9174 68.1616 37.9084 68.0246 41.4957 68.0246C59.963 68.0246 61.4952 47.8751 48.8472 44.461C49.4958 43.7247 51.0456 43.301 52.4184 41.1806C56.1135 35.4738 53.8153 27.007 45.6945 24.8496C42.759 24.0698 40.1776 24.2132 37.0523 24.2132C34.3807 24.2132 30.1787 23.9635 27.6923 24.2664V67.9924Z" fill="white"/>
<path fill-rule="evenodd" clip-rule="evenodd" d="M180.385 32.5236L182.231 37.8825C185.221 36.3776 188.528 35.2933 192.276 35.2933C195.543 35.2933 197.961 36.8739 197.961 40.172C197.961 44.0791 192.822 47.1129 189.714 49.4121C188.634 50.2113 187.453 51.1087 186.565 52.0818C186.064 52.6296 185.657 53.0034 185.099 53.5222C182.007 56.395 178.597 64.6008 179.199 67.9826L205.674 67.981L205.744 62.0889L188.237 62.0325C188.945 55.902 199.325 51.1071 202.975 46.2606C205.369 43.0866 206.413 38.6655 204.145 34.4571C202.057 30.5789 197.66 29.3899 192.447 29.3899C188.987 29.3899 182.683 30.9366 180.385 32.5236Z" fill="white"/>
<path fill-rule="evenodd" clip-rule="evenodd" d="M214.35 53.0179C214.682 52.2913 216.145 50.4755 216.7 49.7311L223.839 40.2251C223.683 44.4722 223.519 48.4986 223.519 52.889L214.35 53.0179ZM206.508 58.612L223.519 58.6571C223.519 60.3827 223.311 66.8435 223.625 67.9826H230.307L230.402 58.6539H236.088C236.082 57.3794 236.254 53.9299 235.975 52.9229H230.399L230.396 29.4318C229.287 29.4318 228.218 29.4366 227.15 29.4318C225.592 29.4221 225.51 29.1917 224.748 30.2325C220.292 36.3244 214.88 42.9126 210.242 49.0834C209.273 50.3708 208.389 51.534 207.342 52.8568C206.609 53.7816 206.49 53.6833 206.505 55.2269C206.514 56.3547 206.508 57.4841 206.508 58.612Z" fill="white"/>
<path fill-rule="evenodd" clip-rule="evenodd" d="M153.428 52.1513C153.15 52.8376 151.165 55.3656 150.589 56.118C149.559 57.4666 142.05 67.4205 141.834 68.0247H150.093C150.666 67.3303 151.312 66.3281 151.939 65.5096L157.744 57.6599C157.912 57.792 157.727 57.6019 158.003 57.8887L161.589 62.8496C161.959 63.3587 164.999 67.9135 165.608 68.0247L173.588 68.0166L163.546 54.2168C163.145 53.6658 162.424 52.7941 162.123 52.1513C163.905 49.4735 165.884 47.0148 167.777 44.3966C168.736 43.0706 169.641 41.8703 170.601 40.5475L173.471 36.5453L165.437 36.5356L157.947 46.6861C157.139 46.1383 152.2 38.7349 150.901 37.1012C150.562 36.6726 150.637 36.5356 149.879 36.5356L142.219 36.5598L153.428 52.1513Z" fill="white"/>
<path fill-rule="evenodd" clip-rule="evenodd" d="M82.4925 29.2369L82.4796 36.5033L76.842 36.5388V42.7805L82.4507 42.7853C82.9174 48.6339 81.5736 60.9225 83.4018 64.4445C85.4441 68.3791 88.0834 68.0681 91.072 68.0681C94.7349 68.0681 98.0164 68.3049 100.559 66.1862C100.25 64.8457 98.8066 62.1728 98.2304 60.742C96.7804 61.4961 94.8379 62.5675 92.6604 62.1856C90.4315 61.7957 90.3832 59.5659 90.3864 57.286C90.3912 54.5744 90.2528 44.5915 90.4299 42.7805H97.7396C98.2208 42.6291 99.6966 37.2767 99.8655 36.5355H90.4299L90.3864 26.9409L82.4925 29.2369Z" fill="white"/>
<path fill-rule="evenodd" clip-rule="evenodd" d="M112.644 39.9368L111.752 36.5453C110.404 36.5356 106.039 36.3568 105.006 36.642L105.007 67.9602L112.911 68.0295L112.954 45.7548C116.258 43.4009 117.654 41.482 122.891 43.7231C123.245 43.1141 125.541 37.5942 125.647 36.9094C121.852 35.4432 119.088 34.9599 115.104 37.8745C114.113 38.6012 113.46 39.2988 112.644 39.9368Z" fill="white"/>
<path fill-rule="evenodd" clip-rule="evenodd" d="M129.454 67.9601L137.389 68.0294L137.454 67.3849L137.442 36.5356C135.936 36.5356 130.504 36.3503 129.452 36.6419L129.454 67.9601Z" fill="white"/>
<path fill-rule="evenodd" clip-rule="evenodd" d="M63.8915 67.3834L63.9237 68.0263L71.8498 68.0214L71.8836 36.5889L71.243 36.5244L63.8915 36.5357V67.3834Z" fill="white"/>
<path fill-rule="evenodd" clip-rule="evenodd" d="M257.784 33.1006C264.628 32.5045 270.084 37.8053 270.687 43.9923C271.37 50.9703 266.017 56.5612 259.8 57.1138C252.759 57.7405 247.25 52.451 246.69 46.1223C246.069 39.1152 251.404 33.6565 257.784 33.1006ZM256.512 30.5018C249.12 31.6747 242.863 38.3467 244.074 47.176C245.091 54.6019 252.086 61.0096 260.874 59.7255C268.209 58.6541 274.497 51.7469 273.319 43.0884C272.303 35.6383 265.27 29.1129 256.512 30.5018Z" fill="white"/>
<path fill-rule="evenodd" clip-rule="evenodd" d="M132.006 22.1799C129.775 22.8357 127.876 25.0349 128.752 28.1123C129.394 30.3776 131.911 32.2434 134.988 31.2557C140.898 29.3578 138.426 20.2932 132.006 22.1799Z" fill="white"/>
<path fill-rule="evenodd" clip-rule="evenodd" d="M66.5099 22.1703C60.375 24.0473 62.9822 33.0828 69.3665 31.2702C71.5665 30.6451 73.5348 28.2138 72.6094 25.2799C71.9158 23.0806 69.5098 21.2519 66.5099 22.1703Z" fill="white"/>
<path fill-rule="evenodd" clip-rule="evenodd" d="M257.708 47.1016L266.471 47.1145L267.11 47.0388V45.0989L259.766 45.0925L259.762 37.739L259.118 37.6907H257.71L257.708 47.1016Z" fill="white"/>
</svg>
