<svg width="300" height="84" viewBox="0 0 300 84" fill="none" xmlns="http://www.w3.org/2000/svg">
<rect x="0.5" y="0.5" width="299" height="82.0769" fill="#050505" stroke="white"/>
<path d="M47.7614 18.6969C41.0662 19.6153 35.435 22.5016 30.7696 27.3886C22.1428 36.4247 20.604 50.2658 27.0046 61.0239C27.5448 61.9423 28.3142 63.1066 28.7234 63.6314L29.46 64.5662L32.1119 61.975C33.5525 60.5483 40.968 53.1685 48.5799 45.592C56.1919 37.9991 63.9839 30.2585 65.8828 28.3726C69.9097 24.4203 69.7624 24.9779 67.2578 23.3052C61.6266 19.5169 54.3584 17.7949 47.7614 18.6969Z" fill="white"/>
<path d="M64.3604 37.7202L55.3734 46.6251L64.3441 55.6285L73.3147 64.6154L73.724 64.1234C75.3773 62.139 77.3417 58.4984 78.2748 55.6776C79.3716 52.365 79.5844 50.9546 79.6007 46.8219C79.6007 43.6076 79.5516 42.8861 79.2242 41.2953C78.373 37.0315 76.3268 32.5544 73.8222 29.4057L73.3475 28.7989L64.3604 37.7202Z" fill="white"/>
<path d="M110.621 30.603C101.913 31.2754 95.9049 39.0487 97.2473 47.9044C98.0166 52.9226 100.832 56.8748 105.137 58.974C110.376 61.5323 116.891 60.9747 121.671 57.5636C122.997 56.6125 123.619 55.9401 123.455 55.6449C123.373 55.5137 122.768 54.6609 122.097 53.759L120.885 52.119L119.887 52.9226C118.708 53.8738 116.351 55.0873 114.959 55.4317C114.419 55.5793 113.273 55.6941 112.389 55.6941C109.492 55.6941 107.56 54.9233 105.53 52.8898C103.484 50.8727 102.567 48.4947 102.584 45.2641C102.584 42.345 103.517 39.9834 105.367 38.1139C107.069 36.392 108.968 35.572 111.538 35.3916C114.157 35.2276 116.662 35.9164 119.068 37.4907C119.756 37.9499 120.378 38.2615 120.443 38.1795C120.82 37.7367 122.735 34.6372 122.735 34.4732C122.719 34.1945 121.327 33.1613 119.936 32.4069C117.235 30.9474 114.092 30.3406 110.621 30.603Z" fill="white"/>
<path d="M149.45 43.3288L149.5 55.7596L149.876 56.7764C150.4 58.154 151.284 59.1215 152.561 59.6955C153.51 60.1383 153.756 60.1711 155.556 60.1875H157.521L157.57 57.9244L157.619 55.6776H156.866C155.998 55.6776 155.245 55.3332 154.951 54.8085C154.787 54.5297 154.722 51.8238 154.656 42.722L154.574 30.9964L151.988 30.9472L149.401 30.898L149.45 43.3288Z" fill="white"/>
<path d="M161.237 43.4928L161.286 56.0876L161.662 57.0224C162.579 59.3019 164.625 60.3679 167.834 60.2367L169.143 60.1875L169.192 57.9571L169.242 55.7268L168.325 55.6448C167.228 55.5464 166.655 55.0872 166.442 54.1033C166.36 53.7589 166.279 48.3963 166.279 42.1809V30.9145H163.741H161.188L161.237 43.4928Z" fill="white"/>
<path d="M261.829 31.0294C261.764 31.0786 261.715 37.6547 261.715 45.6249V60.1056H264.317H266.92L266.986 54.2346C267.051 48.626 267.068 48.3472 267.411 47.4452C268.393 44.9853 270.423 43.5258 272.928 43.493C274.352 43.4602 275.236 43.9029 275.809 44.9197L276.202 45.5921L276.251 52.8406L276.3 60.1056H278.919H281.538L281.489 52.1847C281.424 44.5589 281.424 44.2473 281.064 43.2142C280.393 41.197 279.279 39.9507 277.462 39.2127C276.333 38.7535 273.239 38.6551 271.946 39.0323C270.03 39.5899 268.524 40.623 267.411 42.1318L266.953 42.7714V36.8512V30.9146H264.448C263.057 30.9146 261.878 30.9638 261.829 31.0294Z" fill="white"/>
<path d="M173.973 36.5723V39.6062H172.581H171.19V41.6561V43.706H172.581H173.973V48.9375C173.973 54.6445 174.054 55.2349 175.004 56.8748C176.281 59.0395 179.26 60.3351 182.714 60.2367L184.204 60.1875L184.253 57.9244L184.302 55.6777H183.254C182.681 55.6777 181.879 55.5629 181.454 55.4153C180.668 55.1529 179.686 54.2181 179.342 53.4145C179.211 53.1193 179.129 51.3646 179.08 48.3471L179.015 43.7224L181.454 43.6733L183.876 43.6241L183.925 41.6233L183.975 39.6226L181.552 39.5734L179.129 39.5242L179.08 36.5231L179.047 33.5384H176.51H173.973V36.5723Z" fill="white"/>
<path d="M132.901 38.9665C131.215 39.2945 128.71 40.3113 127.842 41.0329L127.466 41.3281L128.399 43.0992C128.906 44.0668 129.398 44.854 129.463 44.854C129.545 44.854 130.069 44.608 130.625 44.2964C132.311 43.378 133.801 43.0008 135.487 43.0828C137.844 43.1976 138.892 44.0668 139.187 46.1987L139.301 46.9859H138.024C135.012 46.9859 131.771 47.6091 129.79 48.5602C127.073 49.8722 125.78 52.1845 126.173 55.0545C126.566 57.8916 128.694 59.9251 131.853 60.4663C134.75 60.9583 137.91 59.6627 139.269 57.4324L139.596 56.9076V58.4984V60.1055H141.97H144.343V52.8405C144.343 46.9531 144.294 45.3951 144.098 44.5424C143.426 41.6889 141.511 39.8029 138.532 39.0321C137.468 38.7697 134.145 38.7205 132.901 38.9665ZM139.269 51.1514C139.269 52.0697 138.663 53.7425 137.992 54.6117C137.14 55.7432 136.06 56.3828 134.849 56.4648C132.721 56.6124 131.411 55.5792 131.411 53.7261C131.411 53.0373 131.493 52.8077 131.935 52.3157C132.933 51.1678 134.734 50.6266 137.599 50.6102L139.269 50.5938V51.1514Z" fill="white"/>
<path d="M195.27 39.1307C188.869 40.8034 185.497 47.0188 187.576 53.3326C188.001 54.6118 189.229 56.5305 190.228 57.4325C194.533 61.4011 201.703 61.6143 206.172 57.9408C208.66 55.8745 209.986 53.021 209.986 49.6755C209.986 45.4773 207.743 41.8038 204.077 40.049C203.225 39.6391 202.014 39.1963 201.359 39.0487C199.689 38.6715 196.825 38.7207 195.27 39.1307ZM200.557 43.4765C202.21 44.0669 203.749 45.6085 204.338 47.314C205.501 50.6431 203.896 54.497 200.852 55.7105C200.131 55.9893 199.591 56.0713 198.445 56.0877C197.136 56.0877 196.857 56.0221 195.908 55.5793C194.549 54.9397 193.534 53.923 192.896 52.5618C192.421 51.5615 192.388 51.3811 192.388 49.6099C192.388 47.9044 192.438 47.6256 192.83 46.7892C194.189 43.8701 197.545 42.427 200.557 43.4765Z" fill="white"/>
<path d="M246.196 39.0322C245.623 39.1634 244.51 39.5734 243.741 39.9506C242.595 40.4918 242.054 40.9017 240.99 41.9677C238.895 44.0832 237.831 46.6251 237.815 49.577C237.798 54.6609 240.876 58.7279 245.754 60.1383C247.62 60.6631 250.763 60.6631 252.613 60.1383C254.185 59.6791 256.133 58.6951 257.115 57.8424L257.835 57.2192L256.967 55.5792C256.493 54.6937 256.034 53.8737 255.953 53.7589C255.838 53.6113 255.592 53.7261 255.052 54.1361C251.729 56.678 247.784 56.8092 245.247 54.4969C241.923 51.4466 242.611 45.7232 246.54 43.788C248.897 42.6401 252.122 43.0829 254.348 44.854L254.97 45.346L256.133 43.5748L257.295 41.8201L256.591 41.1969C255.74 40.4262 253.644 39.393 252.204 39.0486C250.878 38.7206 247.653 38.7206 246.196 39.0322Z" fill="white"/>
<path d="M214.111 47.1827C214.16 54.9397 214.177 55.12 214.537 56.1368C215.454 58.7115 216.976 59.9743 219.71 60.4499C223.115 61.0402 226.683 59.5315 228.304 56.8256L228.648 56.2516V58.1703V60.1055H231.185H233.722V49.6918V39.2782H231.119H228.517L228.451 44.8868C228.402 50.2166 228.369 50.561 228.026 51.545C227.551 52.8733 227.076 53.6277 226.192 54.4313C225.226 55.3004 224.211 55.7104 222.836 55.7924C221.33 55.8908 220.414 55.448 219.808 54.3657L219.399 53.6277L219.35 46.4447L219.3 39.2782H216.681H214.062L214.111 47.1827Z" fill="white"/>
</svg>
