<svg width="30" height="35" viewBox="0 0 30 35" fill="none" xmlns="http://www.w3.org/2000/svg">
<rect x="4" y="6" width="22" height="23" fill="white"/>
<path d="M17.1349 18.471C16.9722 18.2895 16.8808 18.043 16.8808 17.786C16.8808 17.5289 16.9723 17.2824 17.1349 17.1009L22.4015 11.224C22.6221 10.9779 22.7436 10.6504 22.7437 10.3019C22.7437 9.95341 22.6221 9.62584 22.4015 9.37965C21.9478 8.87338 21.2095 8.87352 20.7559 9.37965L15.483 15.2635C15.1452 15.6405 14.5984 15.6405 14.2606 15.2635L8.98773 9.37965C8.53398 8.87345 7.79582 8.87345 7.34219 9.37965C7.12158 9.62577 7.00006 9.95341 7.00006 10.3019C7.00006 10.6504 7.12152 10.9779 7.34213 11.224L12.6087 17.1009C12.7714 17.2824 12.8628 17.5289 12.8628 17.786C12.8628 18.043 12.7714 18.2895 12.6087 18.471L7.34213 24.3479C7.12158 24.594 7.00006 24.9216 7 25.27C7 25.6185 7.12152 25.9461 7.34219 26.1923C7.79576 26.6985 8.53404 26.6984 8.98773 26.1923L14.2606 20.3084C14.4295 20.1199 14.6506 20.0256 14.8718 20.0256C15.093 20.0256 15.3142 20.1198 15.4831 20.3084L20.7559 26.1923C21.2097 26.6985 21.9478 26.6985 22.4015 26.1923C22.6221 25.9461 22.7436 25.6185 22.7436 25.27C22.7436 24.9216 22.6221 24.594 22.4015 24.3479L17.1349 18.471Z" fill="black"/>
<path d="M25.6731 0.840088H4.32691C1.94104 0.840088 0 3.01081 0 5.67902V29.5512C0 32.2194 1.94104 34.3901 4.32691 34.3901H25.6731C28.059 34.3901 30 32.2194 30 29.5512V5.67902C30 3.01081 28.059 0.840088 25.6731 0.840088ZM23.7522 22.8068C24.3006 23.4187 24.6025 24.2328 24.6026 25.099C24.6026 25.9654 24.3006 26.7795 23.7523 27.3914C22.6245 28.6498 20.7895 28.6498 19.6617 27.3915L15 22.1897L10.3383 27.3915C9.77449 28.0206 9.03369 28.3352 8.29301 28.3353C7.55227 28.3354 6.8117 28.0208 6.24779 27.3915C5.69936 26.7796 5.39742 25.9654 5.39742 25.0992C5.39742 24.2329 5.69936 23.4188 6.24773 22.8069L10.9004 17.6151L6.24773 12.4234C5.69936 11.8115 5.39742 10.9974 5.39736 10.1311C5.39736 9.26481 5.69936 8.4507 6.24768 7.83874C7.37549 6.58035 9.21047 6.58042 10.3383 7.83867L15 13.0405L19.6617 7.83867C20.7895 6.58035 22.6245 6.58028 23.7521 7.83867C24.3005 8.45063 24.6026 9.26481 24.6026 10.1311C24.6025 10.9974 24.3006 11.8115 23.7522 12.4233L19.0996 17.6151L23.7522 22.8068Z" fill="black"/>
</svg>
