<svg width="300" height="84" viewBox="0 0 300 84" fill="none" xmlns="http://www.w3.org/2000/svg">
<rect x="0.5" y="0.5" width="299" height="82.0769" fill="#050505" stroke="white"/>
<path d="M92.0207 26.7177C87.2651 27.3392 83.1484 30.2515 81.09 34.4245C80.0608 36.4844 79.7414 37.7274 79.6349 40.0359C79.422 44.28 80.948 48.0446 84.0711 50.9746C89.5364 56.0888 98.2845 56 103.608 50.7615C104.176 50.1932 104.619 49.5895 104.69 49.2698C104.939 48.1334 104.069 46.8548 102.987 46.7483C102.046 46.6595 101.727 46.8015 100.591 47.8137C99.296 48.968 97.7522 49.8381 96.2616 50.2287C95.0018 50.5661 92.5353 50.5661 91.2399 50.2287C87.762 49.3231 85.0116 46.6062 84.0888 43.1257C83.7694 41.936 83.7694 39.4499 84.1066 38.1536C84.9583 34.9395 87.6732 32.2048 91.027 31.2104C92.3223 30.8375 94.7178 30.7842 96.0842 31.1216C97.5037 31.4767 99.2605 32.4179 100.361 33.4123C100.893 33.8918 101.496 34.3712 101.709 34.4778C103.218 35.2769 105.063 33.6609 104.584 31.974C104.3 30.9085 101.727 28.8131 99.5444 27.8364C97.344 26.8775 94.2565 26.4158 92.0207 26.7177Z" fill="white"/>
<path d="M129.142 26.6466C128.557 26.7532 127.741 27.6588 127.599 28.3159C127.545 28.6177 127.492 34.2647 127.492 40.8528C127.492 53.8336 127.474 53.585 128.468 54.3663C129.036 54.828 129.941 54.8813 130.668 54.5084C131.68 53.9757 131.662 54.2243 131.751 46.5175L131.84 39.3966L134.821 46.5885C136.595 50.8503 137.997 53.9579 138.245 54.2243C138.849 54.8458 140.393 54.8636 141.031 54.2598C141.315 53.9934 142.522 51.312 144.456 46.6418L147.455 39.4322L147.544 46.4287C147.632 53.9757 147.65 53.9934 148.608 54.4907C149.762 55.0944 151.057 54.615 151.554 53.4074C151.909 52.5373 151.927 28.7421 151.554 27.8897C151.004 26.5401 149.123 26.2027 148.129 27.2682C147.916 27.499 145.947 32.045 143.711 37.4078C141.493 42.7528 139.665 47.1035 139.63 47.0857C139.612 47.0502 137.784 42.6818 135.566 37.3545C133.348 32.0272 131.414 27.5345 131.254 27.3392C130.952 27.0196 129.941 26.5046 129.675 26.5401C129.604 26.5579 129.355 26.6111 129.142 26.6466Z" fill="white"/>
<path d="M198.524 27.8719C197.938 28.1561 197.406 29.0439 197.406 29.7187C197.406 30.8019 198.471 31.8496 199.588 31.8496C200.28 31.8496 201.185 31.1216 201.469 30.3402C201.682 29.7187 201.665 29.5411 201.434 28.9729C200.955 27.8364 199.606 27.3215 198.524 27.8719Z" fill="white"/>
<path d="M113.847 34.7798C110.067 35.4901 106.891 38.4733 105.932 42.238C104.566 47.583 108.009 53.2299 113.403 54.5085C115.16 54.9169 117.608 54.7748 119.223 54.1533C121.654 53.2299 123.659 51.4009 124.724 49.1634C125.522 47.512 125.789 46.2867 125.771 44.4577C125.7 38.3135 119.933 33.6433 113.847 34.7798ZM118.194 39.3967C119.383 39.9295 120.394 40.9416 121.015 42.238C122.062 44.3689 121.512 47.2634 119.773 48.8793C118.567 49.998 117.679 50.3709 116.047 50.4597C114.308 50.5485 113.03 50.1223 111.841 49.0924C110.582 47.9737 110.049 46.7839 109.96 44.9549C109.889 43.6053 109.943 43.3212 110.333 42.451C111.149 40.6575 112.764 39.3079 114.539 38.935C115.515 38.7219 117.2 38.935 118.194 39.3967Z" fill="white"/>
<path d="M162.094 34.6909C158.173 35.2947 154.872 38.2957 153.843 42.1491C153.701 42.6818 153.577 43.8538 153.577 44.7594C153.577 52.2531 161.562 57.101 168.198 53.6382C168.802 53.3186 169.334 53.0522 169.423 53.0167C169.494 52.9812 169.547 53.07 169.547 53.2298C169.547 53.3896 169.777 53.7625 170.061 54.0822C170.54 54.6149 170.682 54.6682 171.587 54.6682C172.492 54.6682 172.634 54.6149 173.113 54.0822L173.628 53.5139V48.2755C173.628 43.1968 173.61 43.0192 173.184 41.6341C171.694 36.9461 166.921 33.9451 162.094 34.6909ZM165.945 39.3079C166.956 39.7518 168.322 41.0659 168.837 42.0958C169.174 42.7528 169.298 43.2856 169.334 44.4931C169.387 45.8427 169.352 46.1623 168.961 46.9969C168.393 48.2577 167.488 49.2344 166.317 49.8914C165.448 50.3708 165.235 50.4064 163.602 50.4064C161.97 50.4064 161.757 50.3708 160.887 49.8914C157.551 48.0446 156.735 43.6585 159.202 40.9061C160.142 39.8584 161.207 39.1836 162.289 38.9527C163.336 38.7396 165.04 38.8994 165.945 39.3079Z" fill="white"/>
<path d="M184.097 34.7087C182.802 34.8863 181.205 35.49 180.105 36.2003C179.023 36.8929 177.408 38.5798 176.787 39.6631C175.616 41.6874 175.172 44.3333 175.651 46.5885C176.166 49.0391 177.869 51.756 179.573 52.8037L180.176 53.1766L179.839 53.9224C179.431 54.8103 179.377 56.2132 179.732 57.1898L179.981 57.8824L179.2 58.3796C178.153 59.0366 176.609 60.7414 176.13 61.7713C174.835 64.5415 175.438 67.4715 177.78 69.78C179.768 71.7156 182.341 72.6922 185.535 72.6922C194.052 72.71 198.701 64.8256 193.289 59.5161C191.55 57.7936 188.338 56.5328 185.659 56.5328C184.523 56.5328 183.849 56.2132 183.778 55.6804C183.707 55.1477 184.63 54.757 185.925 54.757C187.15 54.757 188.693 54.3486 190.131 53.6561C191.657 52.9102 193.768 50.8326 194.531 49.2877C196.022 46.2511 195.933 42.6463 194.301 39.6986C194.052 39.2546 193.875 38.8817 193.892 38.864C193.928 38.8462 194.212 38.6864 194.514 38.5266C195.631 37.9583 195.969 36.2714 195.152 35.3657C194.46 34.5844 193.946 34.5133 189.385 34.5311C187.008 34.5489 184.63 34.6199 184.097 34.7087ZM188.126 39.4855C191.728 41.2612 192.491 46.0025 189.616 48.8793C188.569 49.927 187.451 50.3887 185.748 50.4597C184.488 50.5307 184.186 50.4774 183.228 50.0513C181.968 49.483 180.708 48.2222 180.14 46.9792C179.857 46.3399 179.768 45.8072 179.768 44.6352C179.768 43.3389 179.839 43.0015 180.247 42.1846C181.826 39.1481 185.127 38.0116 188.126 39.4855ZM187.327 60.99C189.687 61.4872 191.373 63.0143 191.373 64.648C191.355 66.1219 189.9 67.5958 187.877 68.1818C186.617 68.5547 184.257 68.5369 183.122 68.164C180.442 67.2762 179.094 65.2695 179.981 63.5115C181.045 61.4339 184.239 60.3329 187.327 60.99Z" fill="white"/>
<path d="M198.737 34.7619C198.453 34.8862 198.045 35.1703 197.85 35.4011C197.512 35.7741 197.495 36.0759 197.441 44.4753C197.388 54.0289 197.388 53.9223 198.471 54.4906C199.358 54.9523 200.156 54.828 200.919 54.1532L201.576 53.5494L201.629 45.008C201.682 35.8096 201.665 35.561 200.742 34.9927C200.121 34.5843 199.322 34.4955 198.737 34.7619Z" fill="white"/>
<path d="M212.577 34.6199C212.382 34.6554 211.779 34.7797 211.247 34.8862C207.751 35.5788 204.628 38.6153 203.705 42.2379C203.137 44.4576 203.439 47.1389 204.486 49.2166C207.52 55.2186 215.683 56.657 220.421 52.0045C221.396 51.0634 221.538 50.8325 221.538 50.2643C221.538 48.9147 220.651 48.0091 219.338 48.0091C218.877 48.0091 218.504 48.1866 217.794 48.8082C216.41 49.9979 215.488 50.3708 213.82 50.4596C211.992 50.5484 210.75 50.1045 209.49 48.9325C208.212 47.7249 207.698 46.5174 207.698 44.7239C207.698 43.5697 207.786 43.108 208.159 42.3266C208.958 40.6042 210.288 39.5032 212.169 39.0237C214.05 38.5443 216.073 39.0593 217.581 40.4443C217.972 40.7817 218.522 41.1546 218.806 41.2612C220.616 41.9537 222.266 39.6985 221.148 38.0648C220.492 37.0882 218.415 35.7031 216.818 35.1881C215.47 34.7442 213.323 34.46 212.577 34.6199Z" fill="white"/>
</svg>
