<svg width="300" height="84" viewBox="0 0 300 84" fill="none" xmlns="http://www.w3.org/2000/svg">
<rect x="0.5" y="0.5" width="299" height="82.0769" fill="#050505" stroke="white"/>
<path d="M43.1193 26.2225C42.9288 26.5085 42.9765 52.0904 43.1908 54.9188L43.3336 56.9844L45.548 57.0797L47.7386 57.175L47.7625 45.4805C47.7625 38.934 47.8577 34.0719 47.9768 34.4214C48.1672 35.057 48.4054 36.4553 50.7388 49.6753C51.3579 53.1709 51.9532 56.2535 52.0484 56.5713C52.2151 57.0162 52.5961 57.0797 54.3343 57.0162C55.501 56.9526 56.5487 56.889 56.6915 56.889C56.8344 56.8573 57.0249 56.2852 57.0963 55.6179C57.1916 54.9823 57.4535 53.2345 57.7154 51.7409C57.9535 50.2473 58.4059 47.6096 58.6917 45.8618C60.5013 34.8663 60.7156 33.7859 60.8585 34.7392C60.9299 35.2477 61.0251 40.3958 61.0489 46.1796C61.0727 51.9315 61.1442 56.6984 61.1918 56.7937C61.2632 56.8573 62.2633 56.9526 63.4538 56.9844C65.1682 57.0479 65.6444 56.9844 65.8111 56.603C66.0016 56.1263 65.9064 27.2076 65.7159 26.3814C65.6444 26.0954 64.692 26 62.049 26C58.8583 26 58.4774 26.0636 58.3583 26.5403C57.9297 28.5424 56.7868 35.3748 56.7868 35.915C56.7868 36.8048 54.8819 47.2918 54.5724 48.0545C54.3343 48.6901 53.8104 46.1478 51.6674 34.1036C51.1674 31.3071 50.6198 28.3517 50.4293 27.4937L50.0959 26H46.691C44.8337 26 43.2146 26.0954 43.1193 26.2225Z" fill="white"/>
<path d="M126.315 33.2774C124.981 33.6587 123.886 34.485 122.791 35.915C121.553 37.504 120.957 38.9976 120.481 41.6352C119.386 47.8638 120.981 53.6793 124.434 56.1899C125.958 57.3021 125.981 57.3021 129.053 57.3021C131.934 57.3021 132.22 57.2386 133.339 56.4441C135.172 55.1729 136.577 52.9484 137.387 50.0248C137.911 48.1181 137.934 43.1288 137.434 40.9043C136.696 37.7264 134.601 34.6121 132.506 33.6587C131.482 33.182 127.458 32.9278 126.315 33.2774ZM131.101 39.3471C132.553 40.6183 132.982 41.9848 132.982 45.4169C132.982 49.707 131.791 51.7726 129.22 51.9633C127.434 52.1222 126.386 51.4231 125.6 49.5163C125.1 48.3087 125.005 47.6732 125.005 45.3851C125.005 43.1288 125.1 42.4297 125.6 41.1267C126.672 38.2666 128.958 37.5357 131.101 39.3471Z" fill="white"/>
<path d="M72.2639 33.7541C69.7399 34.8664 68.3827 36.9002 68.0493 40.1416L67.9064 41.5717H70.0971H72.2877L72.5258 40.6501C73.3115 37.6311 78.1928 37.8536 77.9309 40.8725C77.8356 42.0166 77.1451 42.3979 74.5259 42.8428C70.74 43.5102 68.8351 44.7813 68.0017 47.1329C66.8826 50.279 67.1445 53.298 68.6922 55.459C69.6685 56.7937 71.4305 57.7788 72.8591 57.7788C74.0021 57.7788 75.7403 56.9843 76.6689 56.0628C77.669 55.0141 78.1214 55.0141 78.3119 56.031C78.4547 56.8254 78.5024 56.8254 80.9549 56.8254C83.1217 56.8254 83.455 56.7619 83.455 56.2852C83.455 55.9992 83.2646 55.4907 83.0503 55.173C82.6931 54.6327 82.6217 53.4887 82.5026 46.2431C82.4074 38.6798 82.3359 37.8218 81.9073 36.8684C80.8835 34.5804 78.3833 33.2774 75.145 33.341C74.0259 33.3728 72.7163 33.5317 72.2639 33.7541ZM77.9785 47.8321C77.9785 49.993 77.3594 51.4231 76.0736 52.3129C74.8355 53.1709 73.2401 53.1073 72.502 52.2175C71.8591 51.4548 71.8591 49.5481 72.502 48.6265C72.9782 47.9592 73.4068 47.7367 76.0736 46.8469C78.0499 46.2114 77.9785 46.1796 77.9785 47.8321Z" fill="white"/>
<path d="M91.1935 33.9129C90.6697 34.2307 90.003 34.9298 89.6935 35.5018C88.9791 36.8366 88.741 36.7412 88.6458 35.1205C88.5744 33.8176 88.5505 33.7858 87.741 33.8493C87.2886 33.8811 86.3361 33.9129 85.6694 33.9129L84.4075 33.9447V45.385V56.8572L86.7409 56.7618L89.0506 56.6665L89.0744 49.5163C89.0744 42.7474 89.0982 42.2707 89.622 40.8725C90.003 39.8238 90.3602 39.3153 90.884 39.0611C92.4317 38.3302 94.1461 38.7751 94.6937 40.0462C94.908 40.5864 95.0271 43.0016 95.1223 48.7218L95.2414 56.6665L97.6939 56.7618L100.123 56.8572V48.6265C100.123 44.0821 100.027 39.6649 99.8845 38.7433C99.5749 36.5505 98.8844 35.4065 97.1701 34.2625C95.9319 33.468 95.4319 33.3091 93.9318 33.3091C92.7174 33.3091 91.8364 33.4998 91.1935 33.9129Z" fill="white"/>
<path d="M106.052 33.9448C104.909 34.7392 103.766 36.3917 102.909 38.4256C101.504 41.8577 101.551 48.849 102.98 52.2175C104.409 55.5225 106.123 56.7937 109.171 56.8255C111.099 56.8255 111.266 56.7619 112.433 55.7132C113.123 55.1094 113.742 54.6009 113.838 54.6009C114.052 54.6009 113.719 58.3191 113.409 59.2406C113.028 60.3529 112.147 60.9885 110.742 61.1791C109.147 61.4016 107.79 60.8296 107.456 59.8127C107.194 59.0817 107.099 59.05 104.718 59.05C102.409 59.05 102.266 59.0817 102.266 59.6855C102.266 60.4165 102.98 62.3232 103.623 63.4037C104.694 65.1197 107.79 66.1684 111.123 65.9777C113.123 65.8506 113.647 65.6917 114.981 64.8019C116.814 63.5943 117.838 61.9418 118.219 59.5584C118.362 58.5415 118.433 53.4569 118.409 45.8618L118.338 33.7859H116.076H113.814L113.671 35.057C113.576 35.9786 113.504 36.1693 113.361 35.7879C113.266 35.5019 112.671 34.8028 112.052 34.2625C111.004 33.4045 110.742 33.3092 108.909 33.3092C107.409 33.341 106.694 33.4999 106.052 33.9448ZM112.004 39.4743C113.242 40.3323 113.814 42.239 113.814 45.4169C113.814 47.7367 113.742 48.277 113.242 49.2303C112.385 50.9146 111.599 51.5502 110.361 51.5502C108.909 51.582 108.075 50.9782 107.337 49.2621C106.814 48.0545 106.718 47.5143 106.742 45.3533C106.766 41.3492 107.266 40.0145 109.099 39.1882C110.171 38.6798 110.98 38.7751 112.004 39.4743Z" fill="white"/>
<path d="M147.255 26.4131C147.184 26.6674 147.16 27.9067 147.207 29.2097L147.279 31.5613L150.684 31.6566L154.065 31.752L154.089 38.0124C154.089 41.4445 154.16 46.3384 154.208 48.8807C154.255 51.423 154.279 54.2513 154.303 55.1729V56.8572L156.756 56.7618L159.184 56.6665L159.232 44.5906C159.256 37.9488 159.279 32.3558 159.279 32.1333C159.303 31.8473 160.208 31.7202 162.589 31.6566L165.851 31.5613L165.923 28.7648L165.994 26H156.684C149.112 26 147.35 26.0953 147.255 26.4131Z" fill="white"/>
<path d="M180.733 41.0949C180.781 58.319 180.543 56.6983 183.114 56.7619C185.805 56.8572 185.519 58.4779 185.472 42.2708C185.448 34.4532 185.376 27.589 185.329 27.017L185.21 26H182.948H180.709L180.733 41.0949Z" fill="white"/>
<path d="M228.831 32.9913C225.474 33.7223 223.188 36.7095 222.188 41.7305C221.616 44.4953 222.021 48.9125 223.093 51.6773C223.64 53.1073 225.283 55.3954 226.26 56.0628C227.212 56.7301 229.355 57.2068 231.093 57.1432C235.046 57.0479 237.379 55.173 238.879 50.9146C239.427 49.3257 239.618 48.2452 239.713 46.2113C239.879 42.8428 239.522 40.8407 238.26 37.9806C237.427 36.0739 237.046 35.5972 235.855 34.6756C235.07 34.1036 234.046 33.4998 233.57 33.3091C232.403 32.896 230.117 32.7371 228.831 32.9913ZM231.641 38.3937C232.474 38.3937 233.712 39.8238 234.165 41.3174C235.189 44.5588 234.713 49.0079 233.165 50.8193C232.355 51.7726 232.26 51.8044 230.546 51.6773C228.903 51.582 228.736 51.4866 228.093 50.5333C226.283 47.8321 226.379 41.5716 228.26 39.2835C228.784 38.6798 230.236 38.076 230.688 38.2666C230.879 38.3302 231.308 38.3937 231.641 38.3937Z" fill="white"/>
<path d="M170.137 33.3409C165.256 34.2625 162.827 38.2666 162.803 45.3851C162.78 47.8003 162.899 48.849 163.351 50.565C163.97 52.8849 164.184 53.298 165.78 54.9823C166.923 56.2217 167.208 56.3806 169.066 57.0161C173.518 58.478 177.733 56.3806 179.328 51.8997C180.042 49.8341 180.042 49.8341 177.519 49.8341C175.304 49.8341 175.233 49.8659 174.542 50.7875C173.28 52.5035 171.637 52.8531 169.875 51.7726C168.78 51.1053 168.018 49.8341 167.804 48.3087L167.661 47.2918L169.256 47.26C170.137 47.2282 172.78 47.1647 175.137 47.1329C177.495 47.0694 179.542 47.0376 179.685 47.0058C180.162 46.9422 180.233 46.1795 179.995 43.6372C179.733 40.8725 178.923 38.2984 177.804 36.6141C176.138 34.04 173.114 32.7689 170.137 33.3409ZM173.756 39.3153C174.352 39.8873 175.304 42.1754 175.114 42.5885C174.947 42.9063 168.185 42.9381 168.018 42.5885C167.851 42.239 168.685 39.9191 169.137 39.3789C170.042 38.3937 172.756 38.3619 173.756 39.3153Z" fill="white"/>
<path d="M193.591 33.2774C192.496 33.5634 190.305 35.057 189.662 35.9468C187.853 38.4891 187.162 41.1268 187.162 45.4169C187.162 49.4528 187.853 52.3129 189.234 53.9972C192.972 58.6369 199.258 58.5416 202.687 53.743C203.734 52.2811 204.377 50.3744 203.996 49.8659C203.853 49.6753 202.853 49.5164 201.639 49.5164C199.615 49.5164 199.52 49.5481 198.925 50.438C198.234 51.4549 196.782 52.3765 195.829 52.3765C195.496 52.3765 194.71 52.0905 194.067 51.7091C192.758 50.9464 191.924 49.4846 191.924 47.9274V46.9741L198.186 46.9105L204.425 46.8152L204.377 44.4318C204.306 39.9827 202.83 36.5824 200.091 34.6757C197.972 33.1821 195.758 32.7054 193.591 33.2774ZM197.782 39.1883C198.544 39.9509 199.496 42.0801 199.234 42.3979C198.972 42.7793 192.21 42.8746 192.043 42.525C191.829 42.0484 192.853 39.4743 193.424 39.0929C194.758 38.2349 196.853 38.2667 197.782 39.1883Z" fill="white"/>
<path d="M211.044 33.3091C206.997 34.3896 204.544 39.6013 204.854 46.4973C205.068 51.0734 206.497 54.5373 208.83 56.0945C209.902 56.8254 210.521 57.0161 212.33 57.0796C215.188 57.2385 216.83 56.6347 218.259 54.8551C219.426 53.4251 220.807 49.993 220.688 48.8489C220.616 48.118 220.545 48.0862 218.378 48.0862H216.116L215.926 49.0396C215.83 49.5798 215.426 50.4379 215.021 50.9463C214.402 51.7408 214.068 51.8997 213.116 51.8997C210.806 51.8997 209.687 49.7705 209.711 45.385C209.735 41.0949 210.64 38.9022 212.592 38.5208C214.021 38.2348 215.116 38.9975 215.664 40.6818C215.878 41.3491 216.188 41.8894 216.307 41.9212C217.211 42.0165 220.545 41.9212 220.664 41.7623C220.926 41.4127 220.164 38.2984 219.45 36.8683C217.973 33.9129 214.426 32.4193 211.044 33.3091Z" fill="white"/>
<path d="M248.356 33.4998C247.904 33.754 247.166 34.4213 246.761 34.9616C246.332 35.5336 245.951 35.8514 245.927 35.6607C245.927 35.5018 245.88 35.2158 245.856 35.0569C245.808 34.8663 245.785 34.4849 245.761 34.1671C245.737 33.6904 245.475 33.6269 243.594 33.6269C242.046 33.6269 241.451 33.7222 241.451 34.0082C241.332 37.8535 241.522 56.0945 241.665 56.2852C241.761 56.4123 242.808 56.5077 243.975 56.4441L246.094 56.3488L246.213 48.1816C246.332 40.3322 246.356 39.9827 246.856 39.3153C247.189 38.8704 247.761 38.5844 248.523 38.489C249.523 38.3619 249.809 38.4573 250.356 39.0928C251.285 40.1415 251.428 41.5398 251.452 49.421V56.1899L252.023 56.3805C252.333 56.4759 253.333 56.5077 254.237 56.4441L255.857 56.3488L255.999 48.8807C256.142 40.8407 256.333 39.3471 257.333 38.7433C258.095 38.2666 259.809 38.3301 260.285 38.8068C261.143 39.6649 261.214 40.4593 261.214 48.3723V56.1899H263.619H266L265.929 47.0376C265.857 36.8683 265.833 36.6776 264.071 34.6756C261.905 32.1968 258.357 32.4193 256.238 35.184C255.833 35.7243 255.428 36.1692 255.357 36.1692C255.285 36.1692 254.952 35.7243 254.595 35.184C254.261 34.612 253.547 33.9129 252.999 33.5951C251.833 32.8642 249.523 32.8324 248.356 33.4998Z" fill="white"/>
</svg>
