<svg width="300" height="84" viewBox="0 0 300 84" fill="none" xmlns="http://www.w3.org/2000/svg">
<rect x="0.5" y="0.5" width="299" height="82.0769" fill="#050505" stroke="white"/>
<path d="M100.816 22.4159C99.3074 22.6624 98.0141 22.9088 97.9525 22.9704C97.8602 23.032 97.9833 23.7097 98.2297 24.4182C98.8147 26.4205 100.97 28.5151 103.064 29.1312C105.066 29.7165 109.161 29.7781 111.409 29.2544C113.626 28.7616 115.812 26.7901 116.49 24.6646C116.798 23.8021 116.952 23.0628 116.859 22.9704C116.736 22.8472 111.101 21.9231 110.424 21.9231C110.3 21.9231 110.177 22.1387 110.177 22.4159C110.177 23.2784 108.453 24.6954 107.406 24.6954C106.359 24.6954 104.635 23.2784 104.635 22.4159C104.635 21.8615 104.481 21.8615 100.816 22.4159Z" fill="white"/>
<path d="M140.816 23.4942C130.347 24.8188 123.819 34.707 126.498 45.1497C127.329 48.3842 128.438 50.3557 130.809 52.7584C134.258 56.2393 138.846 57.9028 144.019 57.5639C148.792 57.2559 152.271 55.6849 155.351 52.4504C157.537 50.1709 157.568 50.2633 154.92 48.3842C153.657 47.4601 152.21 46.4127 151.748 46.0123C151.286 45.6426 150.793 45.3346 150.701 45.3346C150.609 45.3346 150.023 45.8582 149.438 46.5359C147.806 48.3226 145.651 49.1235 142.972 48.9695C139.462 48.723 137.676 47.5217 136.228 44.4104C134.596 40.8987 135.428 36.3396 138.137 33.8753C139.431 32.7047 141.833 31.7806 143.588 31.7806C145.497 31.7806 147.776 32.7047 149.254 34.0601L150.67 35.3847L153.749 33.1052C155.443 31.8422 156.86 30.7024 156.921 30.5484C157.137 29.9939 153.441 26.4822 151.594 25.4657C148.422 23.7098 144.604 23.0013 140.816 23.4942Z" fill="white"/>
<path d="M26.0203 23.9871C25.9587 24.1103 25.7432 25.0652 25.5584 26.0818C24.6038 31.0721 23.5876 36.4013 22.7562 40.7139C22.2328 43.3323 21.4013 47.7681 20.8779 50.5713C20.3544 53.3745 19.8617 55.9621 19.7693 56.3625L19.6154 57.071L24.0187 56.9786L28.3913 56.8862L28.9148 54.2678C29.192 52.82 29.8078 49.4931 30.2697 46.8748C30.7316 44.2564 31.2243 41.8844 31.3475 41.638C31.5322 41.2992 32.1173 42.2541 33.349 44.8725C40.493 60.1207 39.9387 59.443 41.6323 55.7156C42.9256 52.9124 44.4653 49.6164 46.8363 44.7185L48.6839 40.8679L49.269 43.7943C49.5769 45.3961 50.1004 48.3226 50.4391 50.2632C50.7778 52.2039 51.2089 54.5451 51.3937 55.4076L51.7016 57.0402H56.0126H60.2928V56.3009C60.2928 55.9005 59.9541 53.929 59.5538 51.9267C59.1535 49.8936 58.2913 45.5502 57.6754 42.2541C57.0596 38.958 56.3821 35.3539 56.1358 34.2449C55.8895 33.136 55.5507 31.2569 55.366 30.0864C55.1812 28.885 54.8117 27.0059 54.5654 25.8353L54.0727 23.7714H51.3629C49.5769 23.7714 48.5607 23.8947 48.3452 24.1411C48.1604 24.3567 46.8671 27.0983 45.4198 30.2404C43.9726 33.3824 42.1866 37.2638 41.4168 38.8656L40.0619 41.792L39.0765 39.6357C38.5222 38.4343 37.3829 36.0316 36.5515 34.2449C35.6893 32.4583 34.2728 29.4087 33.3798 27.468L31.7786 23.9255L28.9764 23.8331C27.4368 23.8023 26.1127 23.8639 26.0203 23.9871Z" fill="white"/>
<path d="M74.0265 31.1952C68.6685 31.9653 63.988 36.3088 62.7563 41.6071C61.6477 46.3818 63.9572 52.2655 68.0834 55.0379C70.2081 56.4857 73.9649 57.6562 76.3975 57.6562C82.4021 57.6562 87.6369 54.237 89.6693 49.031C92.7793 41.1143 87.5446 32.4274 78.9225 31.1644C76.4899 30.8256 76.5207 30.8256 74.0265 31.1952ZM78.9841 39.1428C80.7393 39.9437 81.8787 41.946 81.8787 44.1639C81.8787 47.8296 79.9387 49.9551 76.6131 49.9551C74.1804 49.9551 72.5176 48.8154 71.5322 46.505C70.3621 43.671 71.6554 40.1593 74.3036 38.9887C75.5969 38.4035 77.4753 38.4651 78.9841 39.1428Z" fill="white"/>
<path d="M226.267 31.2568C224.081 31.7496 222.664 32.643 220.755 34.7069C215.767 40.1901 216.536 50.8484 222.233 55.3767C223.988 56.7321 227.375 57.7794 229.439 57.5638C231.532 57.3482 233.626 56.424 235.166 55.0378L236.429 53.8981V55.4691V57.0401H240.893H245.358V44.2563V31.4416L240.986 31.534L236.582 31.6264L236.521 32.8586C236.49 33.5363 236.459 34.214 236.459 34.368C236.429 34.4912 235.843 34.1216 235.166 33.4747C232.795 31.3492 229.562 30.5483 226.267 31.2568ZM233.565 38.8347C236.921 40.3749 237.783 45.7041 235.104 48.5381C233.226 50.5096 230.208 50.6944 228.207 48.9385C226.729 47.6448 226.267 46.5666 226.267 44.4103C226.267 41.5455 227.129 40.0052 229.5 38.7731C230.732 38.1262 231.994 38.1262 233.565 38.8347Z" fill="white"/>
<path d="M94.4731 44.2563V57.0401H98.5994H102.695L106.113 51.865C107.991 49.031 109.9 46.1662 110.393 45.4885L111.255 44.2563L111.348 50.6636L111.409 57.0709L115.659 56.9785L119.877 56.8861V44.2563V31.6265L115.843 31.5341L111.84 31.4417L107.529 37.849L103.249 44.2563L103.157 37.849L103.095 31.4725H98.7841H94.4731V44.2563Z" fill="white"/>
<path d="M160.062 44.2562V57.0709L164.465 56.9785C168.592 56.8861 168.838 56.8553 168.869 56.27C168.899 55.9311 168.93 53.4976 168.961 50.8792L168.992 46.1045L172.194 51.0332C173.95 53.744 175.582 56.2084 175.797 56.4856C176.167 56.9477 177.183 57.0093 184.696 57.1017C192.672 57.1941 193.226 57.1633 194.304 56.578C197.414 54.8838 198.83 50.8484 199.354 42.1615L199.539 38.5574H202.125H204.712V47.7988V57.0401H209.177H213.642V44.2562V31.4724H202.71H191.779V34.6144C191.779 38.465 191.286 44.6875 190.855 46.2585C190.362 48.1376 189.469 49.0309 188.084 49.0309H186.913L186.698 52.6351C186.605 54.6374 186.482 56.3932 186.421 56.5472C186.39 56.7013 185.743 55.9311 185.004 54.853C183.619 52.7891 181.586 49.8319 178.661 45.6116L176.936 43.1473L178.291 41.3914C179.03 40.4365 179.769 39.4507 179.985 39.1735C181.309 37.5101 183.434 34.7993 184.388 33.6287C185.004 32.8586 185.62 32.0577 185.743 31.842C185.928 31.5648 184.881 31.4724 180.909 31.4724H175.859L174.535 33.3823C170.809 38.8655 169.207 41.0526 169.084 40.8986C169.023 40.837 168.93 38.7114 168.899 36.1855L168.838 31.6264L164.465 31.534L160.062 31.4416V44.2562Z" fill="white"/>
<path d="M253.857 36.5244C253.642 42.0384 253.396 43.9175 252.379 47.5524L251.733 49.9551H250.255H248.746V56.116V62.2769H252.903H257.06V59.6586V57.0402H263.988H270.917V59.6586V62.3077L275.012 62.2153L279.077 62.1229L279.169 56.0544L279.231 49.986L277.63 49.8935L275.998 49.8011L275.905 40.6214L275.844 31.4725H264.943H254.073L253.857 36.5244ZM267.16 44.1639L267.068 49.8011L263.619 49.8935C261.71 49.9243 260.139 49.8935 260.139 49.8011C260.139 49.7395 260.416 48.6614 260.755 47.4292C261.279 45.4885 261.987 40.7446 261.987 39.0812C261.987 38.6191 262.326 38.5575 264.604 38.5575H267.222L267.16 44.1639Z" fill="white"/>
</svg>
