<svg width="300" height="84" viewBox="0 0 300 84" fill="none" xmlns="http://www.w3.org/2000/svg">
<rect x="0.5" y="0.5" width="299" height="82.0769" fill="#050505" stroke="white"/>
<path d="M39.964 18.49C38.9711 18.6045 38.356 18.7894 37.4597 19.2342C37.095 19.4147 36.6644 19.6657 36.4931 19.8023C36.3261 19.9344 36.0889 20.1193 35.9659 20.2118C35.755 20.3791 35.5002 20.6433 35.0608 21.1541C34.3798 21.9424 33.7955 23.1754 33.5406 24.3599C33.4659 24.7166 33.4615 25.3375 33.4615 38.4732V52.2122L33.5758 52.6966C33.7208 53.3042 33.9536 53.9251 34.2568 54.524C34.7137 55.4356 35.5309 56.3779 36.4711 57.0869C36.6029 57.1882 37.5563 57.7386 37.5959 57.7386C37.6003 57.7386 37.754 57.8046 37.9342 57.8883C38.6899 58.2406 39.6169 58.3947 40.9965 58.3991L41.9411 58.4079L41.9543 57.1485L41.9631 55.8891H41.2513C40.4078 55.8891 39.8805 55.8319 39.3797 55.6866C39.182 55.6293 38.9974 55.5809 38.9711 55.5809C38.9491 55.5809 38.747 55.4796 38.5229 55.3563C37.9166 55.026 37.2927 54.5108 37.0291 54.1277C36.9544 54.0176 36.8446 53.8679 36.7787 53.793C36.5678 53.5508 36.2515 52.8727 36.1416 52.4235C36.0801 52.1858 36.0098 51.7454 35.9878 51.4416C35.9527 51.0673 35.9439 46.7958 35.9527 38.0549L35.9659 25.2186L36.0669 24.7342C36.2427 23.9063 36.7699 22.9596 37.3982 22.3475C38.0045 21.7574 38.8524 21.2906 39.5906 21.1321L40.0519 21.0352H64.1944H88.337L88.7764 21.1321C89.721 21.3435 90.7579 22.0128 91.351 22.7966C91.9134 23.5364 92.1067 23.9372 92.2824 24.7122L92.3747 25.1305L92.3923 38.1649C92.4011 47.1349 92.3923 51.3271 92.3571 51.6089C92.2561 52.5204 92.01 53.1942 91.5531 53.8239C91.2104 54.295 91.0566 54.4624 90.6305 54.8191C89.9978 55.3387 89.3959 55.6249 88.5215 55.8099C88.3985 55.8363 87.8669 55.8671 87.3485 55.8847L86.4039 55.9111V57.1661V58.4211L87.3485 58.4123C88.3941 58.3991 89.1586 58.3111 89.8089 58.1173C90.3712 57.9544 91.4564 57.4127 91.8958 57.0781C92.2868 56.7786 92.9415 56.1797 93.0952 55.9772C93.1787 55.8671 93.2973 55.7174 93.3632 55.6469C93.5653 55.4223 93.8421 55.026 93.9564 54.8014C94.3606 54.022 94.5978 53.4231 94.7604 52.7758L94.8834 52.3002V38.4292V24.5581L94.7428 24.0472C94.4397 22.9111 93.9476 21.9248 93.3325 21.1982C93.2358 21.0837 93.0689 20.8855 92.959 20.7578C92.8536 20.6345 92.6471 20.432 92.5021 20.3131C92.3527 20.1986 92.1902 20.0577 92.133 20.0004C91.7244 19.6129 90.5382 19.0008 89.7034 18.7498C88.6753 18.4372 90.771 18.4592 64.1373 18.4636C50.9127 18.468 40.0387 18.4812 39.964 18.49Z" fill="white"/>
<path d="M109.536 41.9961V57.3865H111.359H113.183V51.5782V45.7655L116.008 45.7479C118.991 45.7303 119.145 45.7215 120.278 45.4925C123.525 44.8452 126.113 42.9296 127.413 40.2082C127.87 39.2526 128.129 38.3675 128.279 37.2182C128.38 36.4344 128.345 34.6025 128.213 33.8495C128.037 32.8146 127.813 32.1189 127.391 31.2734C126.034 28.5652 123.327 26.9843 119.487 26.6541C119.167 26.6232 117.11 26.6056 114.25 26.6056H109.536V41.9961ZM118.811 29.9743C120.634 30.1681 121.978 30.6965 122.919 31.5905C123.736 32.3655 124.21 33.2946 124.434 34.5584C124.562 35.263 124.571 36.54 124.456 37.2358C124.035 39.8295 122.422 41.5073 119.729 42.1634C118.696 42.4144 118.547 42.4276 115.766 42.4452L113.183 42.4672V36.1878V29.9083H115.7C117.585 29.9083 118.363 29.9259 118.811 29.9743Z" fill="white"/>
<path d="M240.068 41.996V57.3907L245.31 57.3731C251.166 57.3599 250.828 57.3731 252.181 57.0341C254.005 56.5717 255.556 55.6734 256.817 54.3611C257.911 53.2162 258.57 51.9083 258.886 50.2526C258.969 49.8123 258.983 49.5965 258.983 48.5793C258.983 47.3595 258.961 47.1393 258.759 46.3335C258.28 44.3915 256.984 42.793 255.151 41.8683C254.405 41.494 253.649 41.2562 252.704 41.0889C252.441 41.0404 252.217 40.9964 252.208 40.992C252.203 40.9832 252.366 40.9127 252.581 40.829C254.462 40.1201 255.872 38.8695 256.729 37.1609C257.568 35.4832 257.744 33.1493 257.159 31.4055C256.896 30.6084 256.386 29.7674 255.78 29.1288C254.567 27.8474 252.99 27.0768 250.855 26.7245C250.301 26.632 250.138 26.632 245.178 26.6188L240.068 26.6012V41.996ZM249.668 30.0316C251.531 30.3618 252.634 31.0532 253.24 32.2642C253.855 33.5016 253.833 35.4347 253.188 36.8042C252.48 38.297 251.105 39.257 249.115 39.6489C248.64 39.7414 248.478 39.7458 246.167 39.7634L243.715 39.7766V34.8402V29.9039L246.43 29.9215C248.961 29.9347 249.176 29.9435 249.668 30.0316ZM249.08 43.1189C252.498 43.3875 254.44 44.6469 255.033 46.9808C255.244 47.8175 255.261 48.9624 255.072 49.8563C254.69 51.675 253.398 53.0577 251.518 53.6698C250.336 54.0529 249.963 54.0837 246.549 54.0837H243.715V48.5793V43.0748H246.101C247.414 43.0748 248.754 43.0969 249.08 43.1189Z" fill="white"/>
<path d="M265.2 41.9961V57.3865H267.023H268.846V41.9961V26.6056H267.023H265.2V41.9961Z" fill="white"/>
<path d="M79.4008 29.5165C78.6979 29.6531 77.9597 30.089 77.494 30.6306C77.0722 31.1282 76.9185 31.4233 76.7867 31.9913L76.668 32.4845L76.6812 47.1263L76.6944 61.768L76.8086 62.1511C77.1294 63.2256 78.0915 64.1503 79.1943 64.4409C79.6776 64.5686 80.4201 64.5642 80.9078 64.4365C81.602 64.2516 82.2962 63.7804 82.7487 63.1903C83.0255 62.8293 83.1178 62.6443 83.2935 62.0762L83.4166 61.6799L83.4297 47.1923C83.4385 37.6939 83.4254 32.6078 83.3946 32.4185C83.254 31.4849 82.8322 30.7407 82.1292 30.1815C81.8173 29.9349 81.1363 29.609 80.7804 29.5342C80.4465 29.4637 79.7128 29.4549 79.4008 29.5165Z" fill="white"/>
<path d="M140.304 34.9284C137.65 35.1838 135.506 36.1041 133.819 37.7026C131.776 39.6402 130.722 42.2207 130.533 45.7479C130.397 48.2403 130.801 50.5169 131.697 52.3532C132.892 54.7795 134.865 56.5277 137.338 57.3424C138.661 57.7783 139.851 57.9369 141.521 57.9016C142.703 57.8752 143.388 57.7915 144.311 57.567C146.569 57.0121 148.471 55.7659 149.842 53.9517C151.121 52.2563 151.854 50.2307 152.07 47.7911C152.14 46.9985 152.096 44.7263 152.004 44.0437C151.6 41.1814 150.598 39.0369 148.915 37.434C147.536 36.1218 145.862 35.3423 143.709 35.0121C143.045 34.9064 141.029 34.8624 140.304 34.9284ZM142.944 38.0065C146.051 38.5525 147.984 40.9348 148.392 44.7263C148.528 46.0209 148.515 47.3728 148.348 48.5353C147.992 51.0497 146.863 52.9741 145.141 54.0089C143.52 54.9821 140.928 55.1979 138.924 54.5241C137.975 54.2071 137.206 53.7227 136.442 52.9609C135.212 51.7367 134.535 50.2483 134.241 48.139C134.135 47.3772 134.14 45.6114 134.245 44.8143C134.403 43.6342 134.676 42.6654 135.089 41.7979C136.174 39.5345 138.037 38.209 140.532 37.9228C141.095 37.8612 142.347 37.9052 142.944 38.0065Z" fill="white"/>
<path d="M196.814 34.9372C193.98 35.2543 191.519 36.8131 189.828 39.354C188.822 40.8644 188.228 42.573 187.978 44.7043C187.873 45.5674 187.873 47.4961 187.974 48.4341C188.259 51.0101 188.967 52.9389 190.219 54.5461C190.482 54.8896 191.198 55.6118 191.563 55.9112C192.758 56.8888 194.23 57.5141 195.979 57.7916C196.519 57.8796 196.765 57.8884 197.978 57.8884C199.507 57.8884 200.126 57.8356 201.273 57.6066C202.74 57.3116 204.072 56.7875 205.175 56.061L205.535 55.8276V54.1366C205.535 52.7979 205.522 52.4545 205.482 52.4809C205.451 52.4985 205.315 52.5954 205.183 52.6967C203.369 54.0706 201.313 54.8148 199.076 54.9028C196.884 54.9953 195.078 54.392 193.769 53.1414C193.25 52.6438 192.868 52.1286 192.534 51.4857C191.989 50.4289 191.691 49.2531 191.581 47.7075L191.554 47.3023H199.296H207.037L207.015 45.5057C206.993 43.6078 206.967 43.2819 206.739 42.1282C206.211 39.4597 204.863 37.3416 202.921 36.1306C201.897 35.4877 200.579 35.0649 199.19 34.9328C198.628 34.8756 197.314 34.88 196.814 34.9372ZM199.155 37.9889C200.139 38.1782 201.014 38.6318 201.673 39.2923C202.723 40.3448 203.29 41.8596 203.395 43.8764L203.417 44.2639H197.512H191.607L191.625 44.1626C191.638 44.1098 191.691 43.8588 191.739 43.6034C192.31 40.8248 194.142 38.6626 196.431 38.077C196.669 38.0153 196.998 37.9492 197.165 37.9272C197.591 37.8656 198.716 37.9052 199.155 37.9889Z" fill="white"/>
<path d="M220.724 35.0824C218.918 35.4259 217.371 36.7117 216.431 38.6493C216.29 38.9399 216.119 39.3407 216.049 39.5388C215.983 39.7414 215.913 39.9043 215.895 39.9043C215.873 39.9043 215.86 38.8915 215.86 37.6585V35.4127H214.081H212.301V46.3996V57.3865H214.081H215.86V51.6706C215.86 45.9945 215.882 45.0213 216.014 44.1229C216.295 42.2558 216.928 40.8159 217.929 39.7502C218.391 39.2614 218.768 38.984 219.309 38.7154C219.81 38.4688 220.095 38.3895 220.706 38.3146C221.681 38.2001 222.991 38.46 223.593 38.8915C223.658 38.9399 223.738 38.9796 223.764 38.9796C223.799 38.9796 223.812 38.4467 223.812 37.1477V35.3202L223.672 35.2586C223.32 35.1132 222.859 35.056 221.967 35.0384C221.29 35.0252 220.978 35.034 220.724 35.0824Z" fill="white"/>
<path d="M154.68 35.4655C154.689 35.4963 156.161 40.3755 157.953 46.3115C159.741 52.2431 161.226 57.1663 161.253 57.2456L161.301 57.3865L163.085 57.3777L164.873 57.3645L167.276 49.6362C170.127 40.4635 169.974 40.9744 170.123 40.2214L170.242 39.6181L170.277 39.9263C170.373 40.8643 170.514 41.3795 172.79 49.3147L175.105 57.3865H176.955H178.8L182.069 46.4524C183.87 40.4415 185.346 35.4963 185.36 35.4655C185.373 35.4259 185.008 35.4127 183.62 35.4127H181.862L181.814 35.5536C181.792 35.6328 180.751 39.4992 179.503 44.1493C177.385 52.0273 177.065 53.2735 177.065 53.6831C177.065 53.868 176.999 53.9957 176.942 53.9297C176.924 53.9032 176.871 53.6082 176.832 53.2691C176.788 52.9301 176.718 52.4897 176.669 52.2915C176.586 51.9393 172.184 35.8442 172.096 35.5536L172.047 35.4127L170.417 35.4215L168.783 35.4347L166.226 43.7794C164.816 48.368 163.616 52.34 163.555 52.6086C163.498 52.8728 163.427 53.2779 163.397 53.4981C163.331 54.0221 163.247 54.0486 163.208 53.5642C163.129 52.6702 162.966 52.0273 160.703 43.8015L158.406 35.4347L156.534 35.4215C155.04 35.4127 154.662 35.4215 154.68 35.4655Z" fill="white"/>
<path d="M58.2679 37.9228C57.1783 38.1518 56.3479 38.7859 55.869 39.7459C55.4824 40.5253 55.5175 39.3584 55.5043 51.0673C55.4955 58.9364 55.5043 61.5345 55.5439 61.7679C55.6142 62.1906 55.7679 62.6046 56.0052 63.0097C56.2381 63.406 56.3743 63.5601 56.7697 63.8772C57.1563 64.1854 57.4683 64.3572 57.9032 64.4937C58.2239 64.5949 58.3426 64.6082 58.8742 64.6082C59.3795 64.6082 59.542 64.5905 59.8364 64.5069C60.948 64.181 61.8882 63.2078 62.2045 62.0541C62.2748 61.7855 62.2836 61.1558 62.2968 51.4857C62.3056 44.2022 62.2968 41.0933 62.2616 40.8335C62.1913 40.2919 61.9629 39.7415 61.629 39.2879C61.2863 38.8255 60.9787 38.5349 60.6712 38.3808C60.5437 38.3147 60.3504 38.2178 60.2406 38.1606C60.1308 38.1078 59.9243 38.0285 59.7793 37.9889C59.4717 37.9052 58.5491 37.8656 58.2679 37.9228Z" fill="white"/>
<path d="M69.0935 43.0131C68.2016 43.1452 67.3141 43.6296 66.866 44.2329C66.3432 44.9331 66.1718 45.3426 66.0796 46.0868C66.04 46.3818 66.0356 48.5131 66.0576 54.11C66.0883 62.2478 66.0752 61.8691 66.2904 62.4503C66.4618 62.9127 66.9011 63.5292 67.2702 63.8286C67.6348 64.1237 68.1752 64.4187 68.5443 64.52C69.01 64.6477 69.9282 64.6477 70.3895 64.5156C70.9651 64.3571 71.7076 63.8771 72.081 63.4191C72.3315 63.1153 72.661 62.4459 72.762 62.0364C72.8499 61.6929 72.8499 61.5212 72.8499 53.8194C72.8499 46.078 72.8499 45.9459 72.762 45.6024C72.5775 44.8846 72.0942 44.1184 71.5714 43.7353C71.2551 43.5019 70.6048 43.1804 70.2841 43.0968C70.0117 43.0307 69.3219 42.9779 69.0935 43.0131Z" fill="white"/>
<path d="M47.6836 50.1207C47.2926 50.178 47.1388 50.2308 46.6819 50.4818C45.957 50.8781 45.4078 51.5166 45.1485 52.2608C44.9069 52.9566 44.8981 53.1239 44.9201 57.6066C44.9376 62.0409 44.9245 61.8516 45.1925 62.5517C45.4561 63.2563 46.0712 63.9124 46.8181 64.2911C47.3277 64.5465 47.6177 64.6082 48.3075 64.6082C48.782 64.6082 48.9929 64.5905 49.2126 64.5245C49.9815 64.3043 50.6888 63.7891 51.1414 63.1154C51.3962 62.7411 51.4445 62.6222 51.5631 62.1246L51.6774 61.6666L51.6598 57.2235C51.6466 52.82 51.6466 52.7804 51.55 52.4634C51.3874 51.9041 51.1677 51.5518 50.7064 51.0895C50.2451 50.6271 49.7442 50.3101 49.2741 50.1868C48.9578 50.1031 48.0615 50.0679 47.6836 50.1207Z" fill="white"/>
</svg>
