<svg width="300" height="84" viewBox="0 0 300 84" fill="none" xmlns="http://www.w3.org/2000/svg">
<rect x="0.5" y="0.5" width="299" height="82.0769" fill="#050505" stroke="white"/>
<path d="M31.2069 18.5274L28.8461 20.889V38.8129C28.8461 58.0689 28.9672 59.1588 31.9938 61.2177C34.0518 62.6709 69.6443 62.6709 71.7024 61.2177C74.729 59.1588 74.85 58.0689 74.85 38.8129V20.889L72.4893 18.5274L70.1286 16.1659H51.8481H33.5676L31.2069 18.5274ZM57.2959 33.6658C57.2959 38.8734 57.4775 40.5084 58.2644 41.235C59.354 42.3855 61.5936 42.5066 62.6227 41.4772C64.257 39.8423 62.6227 36.1485 60.2014 36.1485C59.354 36.1485 59.1119 35.6641 59.1119 34.2714C59.1119 32.3942 59.1724 32.3336 61.5331 32.697C64.4991 33.0603 65.7098 33.9686 66.7993 36.6329C69.1601 42.325 62.8648 48.4409 57.4775 45.6554C54.2693 43.9599 53.9667 43.2333 53.664 34.8163L53.3614 27.0655H55.3589H57.2959V33.6658ZM49.0031 33.7264C50.819 35.1797 51.9691 38.5101 51.4244 40.9928C51.0006 43.3544 48.2162 45.8371 45.6133 46.2609C43.3737 46.6243 43.3737 46.6243 43.3737 44.3838C43.3737 42.5066 43.5553 42.2039 44.7659 42.2039C47.4898 42.2039 48.5188 39.4184 46.5818 37.2385C45.3107 35.8457 44.2816 35.8457 42.7684 37.3596C41.7393 38.389 41.5577 39.3578 41.5577 44.9288V51.2869H39.7418H37.9258V44.1416C37.9864 36.5724 38.4706 34.7558 41.013 33.3631C43.2526 32.152 47.1872 32.3336 49.0031 33.7264Z" fill="white"/>
<path d="M83.0219 16.9531C82.8403 17.3164 82.7797 27.6105 82.8403 39.7818L83.0219 61.8837L85.9274 62.0654L88.8329 62.2471L88.6513 52.8613L88.4697 43.415H92.5859C97.4284 43.415 100.031 42.4461 102.271 39.8423C104.208 37.4807 105.116 34.4531 105.116 30.0327C105.116 22.7662 102.453 18.2247 97.3679 16.7715C94.0992 15.8632 83.3851 15.9843 83.0219 16.9531ZM97.2468 22.2213C99.547 23.4323 100.455 31.2437 98.7601 35.2402C97.7311 37.7229 95.9756 38.5707 91.6174 38.5707H88.4697L88.6513 29.7299L88.8329 20.8285L92.4648 21.2524C94.4623 21.4341 96.6415 21.8579 97.2468 22.2213Z" fill="white"/>
<path d="M152.028 16.7109C149.243 17.8614 148.396 19.678 148.154 25.0067C147.972 29.9115 147.912 30.0932 146.519 30.0932C145.248 30.0932 145.067 30.396 145.067 32.2126C145.067 34.0897 145.248 34.3319 146.58 34.3319H148.093V48.2592V62.1865H150.817H153.602L153.42 48.2592L153.238 34.3319H155.539C157.718 34.3319 157.778 34.2714 157.778 32.2126C157.778 30.1538 157.718 30.0932 155.539 30.0932H153.238L153.541 25.7333L153.844 21.3129L155.841 21.1313C157.657 20.9496 157.778 20.768 157.778 18.5275C157.778 16.1659 157.778 16.1659 155.539 16.2265C154.267 16.2265 152.694 16.4687 152.028 16.7109Z" fill="white"/>
<path d="M186.833 39.1762V62.1865H189.255C191.071 62.1865 191.676 61.9443 191.676 61.2177C191.676 60.3699 191.797 60.3699 193.008 61.2177C194.884 62.5498 199.424 62.4287 201.724 61.036C204.63 59.28 205.598 55.6467 205.598 46.5032C205.598 37.4807 204.932 34.7558 202.269 32.0915C200.635 30.4565 199.848 30.0932 197.547 30.0932C195.732 30.0932 194.339 30.5171 193.25 31.3648L191.676 32.5759V24.4012V16.1659H189.255H186.833V39.1762ZM199.182 36.2696C199.969 37.3596 200.15 39.4184 200.15 46.2004C200.15 53.5879 199.969 54.9807 199.061 56.1312C197.669 57.8872 195.005 57.8872 193.31 56.1917C192.039 54.9807 191.979 54.3146 191.979 46.2004C191.979 38.5101 192.1 37.3596 193.129 36.2091C194.702 34.453 197.971 34.5136 199.182 36.2696Z" fill="white"/>
<path d="M173.516 25.2489C173.516 30.0327 173.516 30.0932 172.003 30.0932C170.671 30.0932 170.49 30.3354 170.49 32.2126C170.49 34.0897 170.671 34.332 172.003 34.332H173.516V45.2316C173.516 57.8872 174.001 59.8855 177.39 61.2782C178.601 61.7626 180.357 62.1865 181.386 62.1865C183.08 62.1865 183.202 62.0654 183.202 59.7644C183.202 57.7661 183.02 57.3423 182.051 57.3423C178.964 57.3423 178.964 57.3423 178.964 45.4738V34.332H181.083C183.08 34.332 183.202 34.2108 183.202 32.2126C183.202 30.2143 183.08 30.0932 181.083 30.0932H178.964V25.2489V20.4047H176.24H173.516V25.2489Z" fill="white"/>
<path d="M109.353 46.1398V62.1865H112.077H114.801V50.1364C114.801 39.2368 114.922 37.9651 115.951 36.6935C116.798 35.6035 117.706 35.2402 119.583 35.2402H122.065V32.697C122.065 30.2748 121.944 30.0932 120.43 30.0932C119.462 30.0932 117.949 30.517 116.98 31.0015C114.861 32.0914 114.801 32.0914 114.801 31.0015C114.801 30.3354 114.075 30.0932 112.077 30.0932H109.353V46.1398Z" fill="white"/>
<path d="M128.299 31.3043C124.667 33.4842 124.183 35.3008 124.183 46.1399C124.183 54.3146 124.365 56.1312 125.273 57.8267C128.481 63.7004 138.045 63.7004 141.253 57.8267C142.161 56.1312 142.343 54.3146 142.343 46.1399C142.343 37.5413 142.222 36.2091 141.132 34.3925C138.711 30.3354 132.355 28.761 128.299 31.3043ZM136.229 36.2697C137.016 37.3596 137.198 39.479 137.198 46.5032C137.198 54.4962 137.076 55.4651 135.987 56.4339C135.382 56.9789 134.11 57.5239 133.263 57.5239C132.416 57.5239 131.144 56.9789 130.539 56.4339C129.449 55.4651 129.328 54.4962 129.328 46.261C129.328 38.6312 129.51 36.9963 130.357 36.0274C131.75 34.4531 135.079 34.5742 136.229 36.2697Z" fill="white"/>
<path d="M161.41 46.1398V62.1865H164.134H166.858V46.1398V30.0932H164.134H161.41V46.1398Z" fill="white"/>
<path d="M214.254 31.2437C211.954 32.697 210.622 34.6347 210.077 37.2385C209.714 39.1762 209.714 39.1762 212.196 39.1762C214.073 39.1762 214.799 38.8734 215.041 38.0863C215.767 35.8458 216.373 35.2402 218.37 35.0586C221.397 34.8769 222.002 35.543 222.365 39.7212L222.729 43.415H219.52C212.257 43.415 208.806 47.0482 209.412 54.1935C209.654 57.5239 209.956 58.3717 211.53 59.8855C214.012 62.4287 218.249 62.9132 220.792 61.036C222.547 59.7644 222.547 59.7644 222.547 60.9755C222.547 62.0049 222.91 62.1865 225.029 62.1865H227.45L227.268 48.2592L227.087 34.3319L225.15 32.3942C223.516 30.7593 222.668 30.4565 219.702 30.2749C216.978 30.0932 215.767 30.2749 214.254 31.2437ZM222.365 51.408C222.002 54.4962 221.639 55.4651 220.368 56.6156C219.157 57.645 218.31 57.9478 217.16 57.645C214.799 57.0395 214.375 56.3734 214.375 52.8007C214.375 48.7437 215.465 47.7143 219.763 47.6537H222.729L222.365 51.408Z" fill="white"/>
<path d="M235.319 31.607C233.079 33.5447 231.99 36.6935 232.414 40.2056C232.837 44.1416 234.411 45.8976 239.314 47.8353C243.188 49.4097 243.612 49.7731 243.915 51.4686C244.338 54.5568 243.309 57.1606 241.554 57.5844C239.435 58.1294 237.075 56.555 237.075 54.6173C237.075 53.2246 236.832 53.1035 234.351 53.1035H231.687L232.05 55.0412C232.535 57.8267 234.351 60.6727 236.167 61.4599C238.346 62.4893 242.825 62.3682 244.944 61.2782C249.544 58.9166 250.513 49.6519 246.578 45.9582C245.791 45.2315 243.672 44.1416 241.857 43.5361C237.983 42.2039 236.59 40.2056 237.438 37.1779C238.104 34.8769 239.435 34.0292 241.554 34.5741C242.704 34.8769 243.249 35.4824 243.551 36.7541C243.854 38.389 244.096 38.5707 246.336 38.5707H248.757L248.394 35.9669C247.849 32.0309 245.367 30.0932 240.767 30.0932C237.801 30.0932 236.832 30.3354 235.319 31.607Z" fill="white"/>
<path d="M257.655 31.1833C253.721 33.121 253.115 35.1798 253.115 46.14C253.115 56.979 253.6 58.7956 257.232 60.9756C259.471 62.3683 264.435 62.6105 266.675 61.3994C268.733 60.37 270.367 58.0084 270.791 55.3441L271.154 53.1036H268.733C266.493 53.1036 266.251 53.2853 265.888 54.9202C265.464 57.2818 263.043 58.3112 260.561 57.2818C258.684 56.5552 258.382 55.7074 258.14 50.8026L257.958 47.6538H264.495H270.972V42.204C270.972 37.9653 270.73 36.2092 269.762 34.3926C267.764 30.3961 262.135 28.8822 257.655 31.1833ZM264.314 35.422C265.403 36.2698 265.767 37.3597 266.009 39.9635L266.251 43.4151H262.074H257.897L258.261 39.8424C258.442 37.8441 258.745 36.0881 258.866 35.967C259.592 35.3615 261.65 34.3926 262.256 34.332C262.679 34.332 263.587 34.8165 264.314 35.422Z" fill="white"/>
</svg>
