<svg width="300" height="84" viewBox="0 0 300 84" fill="none" xmlns="http://www.w3.org/2000/svg">
<rect x="0.5" y="0.5" width="299" height="82.0769" fill="#050505" stroke="white"/>
<path d="M16.1539 27.7389V28.9394H21.3042H26.4545V42.4045V55.8696H27.8474H29.2403V42.4045V28.9394H34.3906H39.5409V27.7389V26.5384H27.8474H16.1539V27.7389Z" fill="white"/>
<path d="M153.431 27.2263C153.34 27.2393 153.049 27.2847 152.783 27.3237C152.194 27.408 151.39 27.6935 150.969 27.9661C150.458 28.297 149.959 28.8746 149.674 29.4716C149.175 30.5164 149.026 31.5157 149.026 33.8518V35.2989H147.277H145.527V36.3372V37.3755H147.277H149.026V46.6226V55.8698H150.289H151.552V46.6226V37.3755H153.723H155.899L155.88 36.3502L155.86 35.3314L153.703 35.3119L151.539 35.2989L151.572 33.3002C151.604 31.1393 151.637 30.8992 151.961 30.3606C152.233 29.9129 152.654 29.6273 153.25 29.4911C153.768 29.3743 154.908 29.3418 155.718 29.4197L156.223 29.4716L156.204 28.4074L156.184 27.3496L155.537 27.2717C154.921 27.2004 153.781 27.1809 153.431 27.2263Z" fill="white"/>
<path d="M159.909 32.1841V35.2989H158.614H157.318V36.3372V37.3754H158.614H159.909V44.0074C159.916 52.7419 159.955 53.5011 160.473 54.4486C160.855 55.1494 161.697 55.6945 162.76 55.9151C163.375 56.0384 165.092 56.0709 166.083 55.98L166.647 55.9216V54.8249V53.7283L166.375 53.7737C166.219 53.7996 165.643 53.8256 165.092 53.8256C163.932 53.8256 163.518 53.7283 163.084 53.3584C162.773 53.0923 162.611 52.7938 162.507 52.3136C162.455 52.0735 162.436 49.8218 162.436 44.6758V37.3754H164.541H166.647V36.3372V35.2989H164.541H162.436V32.1841V29.0692H161.173H159.909V32.1841Z" fill="white"/>
<path d="M91.9186 35.3054C88.66 35.6429 86.127 37.3885 84.7277 40.2502C83.9762 41.7881 83.6134 43.365 83.5486 45.3572C83.4514 48.2514 84.0993 50.8017 85.4208 52.7419C85.8484 53.3779 86.9886 54.5135 87.5781 54.9029C88.6471 55.6167 89.9039 56.1034 91.2449 56.3305C91.9446 56.4473 92.2166 56.4668 93.3763 56.4343C94.3545 56.4084 94.8598 56.3694 95.2874 56.2721C97.0171 55.8957 98.3841 55.1819 99.5502 54.0593L100.114 53.5142V54.6952V55.8698H101.312H102.511V45.8764V35.883H101.312H100.114V37.0835V38.2905L99.5566 37.7324C97.6909 35.8765 94.9052 34.9939 91.9186 35.3054ZM93.9334 37.3755C97.8723 37.8687 100.23 41.3663 100.03 46.4279C99.8287 51.4117 97.205 54.4421 93.0847 54.4421C89.5152 54.4421 86.9886 52.1969 86.2501 48.3682C85.7577 45.7985 86.0752 42.9238 87.0728 40.99C88.4333 38.3489 90.9793 37.0056 93.9334 37.3755Z" fill="white"/>
<path d="M132.396 35.3054C127.893 35.7402 124.79 38.9329 124.123 43.8128C123.896 45.4675 123.941 47.1612 124.252 48.7316C125.004 52.5083 127.194 55.078 130.491 56.0579C131.43 56.3369 132.324 56.4537 133.562 56.4537C138.842 56.4537 142.295 53.1378 142.878 47.5051C142.988 46.4344 142.923 44.3708 142.742 43.3455C142.457 41.7232 141.874 40.2113 141.077 39.0043C140.597 38.284 139.554 37.2392 138.848 36.772C137.034 35.5715 134.819 35.0653 132.396 35.3054ZM134.598 37.4079C137.844 37.8946 139.949 40.4254 140.416 44.4098C140.513 45.2339 140.455 47.4078 140.319 48.1476C139.716 51.4311 137.928 53.592 135.279 54.2539C134.572 54.4291 133.277 54.4875 132.493 54.3772C129.532 53.9813 127.453 51.8853 126.747 48.5823C126.364 46.7913 126.397 44.5201 126.837 42.8264C127.258 41.2041 128.146 39.6921 129.195 38.8226C130.057 38.1153 131.139 37.6091 132.182 37.4404C132.447 37.4014 132.713 37.356 132.765 37.343C133.05 37.2911 134.041 37.3236 134.598 37.4079Z" fill="white"/>
<path d="M44.27 35.3962C40.1238 36.0581 37.1697 39.5623 36.632 44.4617C36.5283 45.3701 36.5477 47.1093 36.6579 47.9983C36.8522 49.4778 37.1502 50.5031 37.7657 51.749C38.867 54.0138 40.7522 55.5842 43.1104 56.2201C44.0433 56.4667 44.6652 56.5446 45.7924 56.5381C47.0039 56.5381 47.8072 56.4213 48.7855 56.0968C51.6684 55.1364 53.4888 52.9495 54.2727 49.4908L54.3116 49.3156H53.126H51.9405L51.7655 49.9386C51.1047 52.2941 49.5953 53.858 47.4639 54.3902C46.978 54.5134 46.7253 54.5329 45.7601 54.5329C44.7429 54.5264 44.5615 54.507 43.9785 54.3577C41.0114 53.5595 39.314 51.0742 39.0484 47.1222L39.0031 46.4603H46.7642H54.5254L54.4865 45.3053C54.2986 39.7829 51.5388 36.0646 47.1205 35.3962C46.369 35.2794 45.0086 35.2794 44.27 35.3962ZM46.531 37.3754C49.6082 37.7648 51.6425 40.2307 52.0182 44.0074L52.0571 44.4487H45.5398H39.029L39.0614 44.2345C39.463 41.8076 40.0979 40.3021 41.2252 39.1081C42.5338 37.7129 44.3931 37.1094 46.531 37.3754Z" fill="white"/>
<path d="M111.386 35.3963C108.367 35.8116 106.443 37.2782 105.841 39.6143C105.685 40.2308 105.679 41.5805 105.834 42.21C106.158 43.5013 107.007 44.4942 108.38 45.182C109.074 45.5324 110.175 45.8893 111.483 46.2008C114.399 46.8822 115.61 47.2002 116.2 47.4338C117.968 48.1281 118.798 49.0431 118.882 50.3864C118.947 51.4052 118.603 52.2877 117.858 53.0275C116.627 54.2474 114.191 54.7731 111.743 54.3448C110.628 54.1501 109.54 53.618 108.866 52.9431C108.121 52.2033 107.571 50.9055 107.564 49.8997C107.558 49.2767 107.642 49.3156 106.327 49.3156H105.167V49.6206C105.167 50.0489 105.335 51.0807 105.478 51.5869C105.821 52.7614 106.307 53.5855 107.143 54.4097C108.18 55.435 109.404 56.0125 111.276 56.3694C112.118 56.5251 114.541 56.5251 115.383 56.3694C118.396 55.7984 120.314 54.3513 121.059 52.0865C121.227 51.5674 121.253 51.3662 121.285 50.5745C121.311 49.7958 121.292 49.5882 121.175 49.1145C120.961 48.2449 120.644 47.6868 120.003 47.0379C118.733 45.7596 117.424 45.2274 113.019 44.2216C109.592 43.4364 108.529 42.8005 108.218 41.3469C107.998 40.2892 108.277 39.3158 109.015 38.5695C110 37.5832 111.879 37.1289 113.945 37.382C115.351 37.5572 116.2 37.9206 116.971 38.6733C117.606 39.3028 117.942 39.9582 118.143 40.9705L118.273 41.6584H119.465H120.65L120.612 41.2496C120.475 39.6922 120.113 38.6928 119.335 37.7065C118.37 36.4865 116.511 35.5975 114.477 35.3703C113.66 35.2795 112.157 35.2925 111.386 35.3963Z" fill="white"/>
<path d="M67.2619 35.565C64.1134 35.7921 62.3578 36.9666 60.8483 39.8673L60.4661 40.5876V38.1996V35.818H59.3324H58.1987V45.8439V55.8698H59.3972H60.5957V50.9769C60.5957 45.1431 60.654 44.1502 61.0945 42.6317C61.5998 40.8731 62.8825 39.3871 64.5669 38.6084C65.4674 38.1866 66.9315 37.9076 67.7348 37.9984L68.1105 38.0438V36.7655C68.1105 35.7856 68.0911 35.4936 68.0328 35.5001C67.9875 35.5066 67.6376 35.5325 67.2619 35.565Z" fill="white"/>
<path d="M80.8082 35.8505C79.8753 35.9803 79.1562 36.1815 78.4436 36.5254C77.0572 37.1873 76.0725 38.2451 75.1007 40.1139L74.7509 40.7823L74.7314 38.4268L74.7185 36.0777H73.5848H72.451V46.1035V56.1293H73.6496H74.8481V51.5025C74.8481 45.8115 74.9128 44.6045 75.308 43.0535C75.8911 40.7823 77.6532 39.0367 80.0178 38.4008C80.3612 38.3099 80.8017 38.258 81.4431 38.2386L82.363 38.1996V36.9797V35.7532L81.8966 35.7597C81.6374 35.7662 81.1451 35.8051 80.8082 35.8505Z" fill="white"/>
<path d="M245.177 26.8382C247.713 28.0813 252.569 30.4232 252.641 30.4232C252.839 30.4232 257.946 32.9453 257.946 33.0534C257.946 33.1975 257.407 33.6479 256.022 34.6927C255.393 35.1611 254.889 35.5935 254.889 35.6475C254.889 35.7736 265.968 33.2515 266.129 33.1074C266.201 33.0354 263.54 32.1706 261.364 31.5762C260.914 31.45 259.745 31.1078 258.756 30.7835C257.767 30.4772 255.986 29.9368 254.799 29.5945C252.623 28.964 249.278 27.9371 246.436 27.0724C244.278 26.4059 244.278 26.4059 245.177 26.8382Z" fill="white"/>
<path d="M186.277 33.3056C182.068 33.9361 178.309 37.1787 177.051 41.2321C176.331 43.52 176.241 44.5829 176.565 46.4564C177.284 50.5998 179.479 53.6083 183.04 55.3557C186.565 57.0852 190.863 56.833 194.172 54.7432C195.269 54.0407 197.697 51.6807 197.697 51.3204C197.697 51.0142 194.55 51.0862 194.28 51.4105C193.902 51.8609 192.212 52.9057 191.205 53.302C189.82 53.8605 187.32 53.9866 185.899 53.5723C183.381 52.8517 181.097 50.9421 180.054 48.7263C178.453 45.3034 179.227 41.124 181.924 38.6019C185.396 35.3592 189.856 35.1611 193.848 38.0795C194.154 38.2957 194.622 38.3497 195.989 38.3137L197.733 38.2596L196.636 37.0526C193.884 34.0622 190.18 32.7111 186.277 33.3056Z" fill="white"/>
<path d="M248.055 35.9177V38.5298H247.515H246.976V39.7729C246.976 41.0159 246.976 41.0339 247.479 41.0879L247.965 41.142L248.073 47.0869C248.127 50.3476 248.235 53.23 248.324 53.4822C248.558 54.2028 249.242 55.2116 249.763 55.6079C251.148 56.6888 254.098 56.869 255.68 55.9322C256.13 55.662 256.508 55.4098 256.508 55.3737C256.508 55.1756 255.608 53.302 255.518 53.302C255.464 53.302 255.231 53.4281 254.979 53.5903C254.403 53.9686 252.677 53.9686 252.065 53.5722C251.184 52.9778 251.112 52.5094 251.112 46.5465V41.0519H253.63H256.148V39.7909V38.5298H253.63H251.13L251.076 35.9537L251.022 33.3956L249.547 33.3416L248.055 33.2875V35.9177Z" fill="white"/>
<path d="M205.664 38.71C204.136 39.1063 203.146 39.7008 202.355 40.6736C202.049 41.0699 201.708 41.3582 201.636 41.3041C201.546 41.2501 201.474 40.6015 201.474 39.8629V38.5298H200.035H198.596V47.4472V56.3646H200.125H201.654V51.4465C201.654 45.934 201.798 44.9792 202.733 43.592C203.686 42.1869 205.287 41.4302 207.283 41.4122H208.146L208.092 39.917L208.038 38.4398L207.499 38.4037C207.211 38.3857 206.384 38.5118 205.664 38.71Z" fill="white"/>
<path d="M214.567 38.62C211.096 39.5027 208.74 41.9888 208.038 45.5377C206.977 50.726 210.017 55.3738 215.124 56.3826C216.815 56.7069 219.459 56.5087 220.988 55.9323C222.318 55.4279 224.009 54.2929 224.099 53.8425C224.117 53.6984 223.793 53.176 223.362 52.6896L222.588 51.8069L221.761 52.4374C220.412 53.4642 219.459 53.7525 217.391 53.7345C215.25 53.7345 214.009 53.3201 212.768 52.2392C211.923 51.5006 211.06 49.9513 210.97 49.0686L210.916 48.5282L218.182 48.4741L225.448 48.4381L225.358 46.7627C225.142 42.9616 223.074 40.0432 219.729 38.8902C218.308 38.3858 215.934 38.2777 214.567 38.62ZM219.315 41.5744C220.898 42.3491 222.354 44.2586 222.408 45.6458L222.426 46.1862H216.671H210.916L210.97 45.6458C211.06 44.7991 211.815 43.3759 212.589 42.6193C212.966 42.241 213.758 41.7366 214.351 41.4844C215.754 40.8899 218.02 40.9259 219.315 41.5744Z" fill="white"/>
<path d="M233.901 38.5299C233.487 38.62 232.57 38.9623 231.832 39.3045C229.261 40.4935 227.3 43.1057 226.815 46.0241C225.987 50.834 229.387 55.5719 234.278 56.4186C236.491 56.7969 239.188 56.1124 241.005 54.7432C241.526 54.3469 242.03 54.0226 242.12 54.0226C242.228 54.0226 242.3 54.5451 242.3 55.1936V56.3646H243.559H244.818V47.4472V38.5299H243.523H242.21L242.264 39.7009C242.336 41.052 242.228 41.124 241.221 40.3314C239.242 38.7641 236.365 38.0615 233.901 38.5299ZM238.343 41.6104C241.922 43.2678 243.181 47.7535 240.969 51.0322C238.397 54.8333 232.75 54.7432 230.196 50.8701C229.566 49.8973 229.099 48.0417 229.225 46.9068C229.422 45.0693 230.124 43.8443 231.868 42.259C233.253 40.9979 236.347 40.6917 238.343 41.6104Z" fill="white"/>
<path d="M269.421 38.638C266.255 39.3946 263.522 42.0428 262.712 45.1053C262.155 47.3032 262.515 50.0774 263.612 51.969C264.403 53.3381 266.147 54.9595 267.478 55.59C269.654 56.6168 271.507 56.7789 273.827 56.1664C277.478 55.1756 280.032 52.023 280.355 48.1318C280.841 42.1149 275.194 37.2329 269.421 38.638ZM274.151 41.6465C275.338 42.223 276.705 43.6101 277.208 44.7631C278.665 48.0418 277.298 51.7528 274.079 53.23C273.108 53.6804 272.748 53.7525 271.327 53.7525C269.834 53.7525 269.619 53.6984 268.503 53.14C267.838 52.7977 267.011 52.2212 266.687 51.8609C265.104 50.0954 264.529 47.3932 265.32 45.3215C266.04 43.3939 267.55 41.9347 269.439 41.3222C270.734 40.9079 272.91 41.052 274.151 41.6465Z" fill="white"/>
<path d="M257.946 47.4473V56.3646H259.475H261.004V47.4473V38.5299H259.475H257.946V47.4473Z" fill="white"/>
</svg>
